<?xml version="1.0" encoding="UTF-8"?>
<svg xmlns="http://www.w3.org/2000/svg" width="37" height="51" viewBox="0 0 37 51" fill="none">
  <path fill-rule="evenodd" clip-rule="evenodd" d="M7.87809 4.87271C6.7865 4.11708 5.6834 3.35349 4.58029 2.60495L4.55453 2.57919C4.19389 2.32159 4.06509 2.14127 4.39997 1.78063C4.56749 1.61311 4.69467 1.41869 4.82036 1.22653C4.86862 1.15275 4.91667 1.0793 4.96669 1.00784C4.98282 0.986332 4.9967 0.964826 5.00998 0.944257C5.06033 0.866275 5.10199 0.801758 5.22429 0.801758C5.27581 0.827518 5.32089 0.859718 5.36597 0.891918C5.41105 0.924118 5.45613 0.956318 5.50765 0.982078C6.37062 1.57456 7.23358 2.17349 8.09655 2.77241C8.9595 3.37132 9.82244 3.97023 10.6854 4.56271C10.943 4.74303 11.0203 4.87183 10.8142 5.18094L10.7895 5.21684C10.0155 6.34059 10.0038 6.35757 8.8822 5.56734C8.54881 5.337 8.21399 5.10523 7.87809 4.87271ZM36.0331 4.40815L27.6869 9.74045V9.71469C27.3778 9.92077 27.1975 9.94653 27.0172 9.58589C26.9513 9.44465 26.8475 9.29997 26.7449 9.15688C26.5667 8.9085 26.392 8.66492 26.4247 8.45245C26.4429 8.2521 26.7573 8.09037 27.0675 7.93086C27.196 7.86478 27.3237 7.79909 27.4293 7.73118C30.2111 5.92818 33.0186 4.15093 35.8262 2.37369L35.8262 2.37367L35.8264 2.37354L35.8266 2.3734L35.8271 2.37311C35.9102 2.32321 35.9827 2.27331 36.0652 2.21647L36.0653 2.2164L36.0657 2.21611L36.0663 2.21572C36.1112 2.18475 36.1592 2.15172 36.2135 2.11551C36.265 2.19279 36.3938 2.32159 36.3938 2.32159C37.0464 3.14591 36.9262 3.84143 36.0331 4.40815ZM10.2217 20.946C10.8142 21.1521 11.3551 21.0748 11.8961 20.7399C12.1852 20.5529 12.1487 20.3098 12.1128 20.0698C12.0943 19.9462 12.0759 19.8234 12.1022 19.7095C12.1194 19.6237 12.1136 19.5378 12.1079 19.4519C12.105 19.409 12.1022 19.3661 12.1022 19.3231C12.1022 18.7049 12.0764 18.6791 11.4839 18.911C11.4383 18.9338 11.3877 18.9515 11.3387 18.9687C11.277 18.9903 11.2179 19.0111 11.1748 19.0398C10.9172 19.2459 10.7884 19.1171 10.6596 18.8852L10.6596 18.8852C10.402 18.4473 10.1444 18.0094 9.86107 17.5972C9.70651 17.3654 9.70652 17.2366 9.98987 17.082C10.7112 16.6956 10.9688 16.0516 10.8915 15.2273C10.84 14.7894 10.84 14.3515 10.8915 13.9393C10.9688 13.1408 10.7112 12.5225 10.0156 12.1361C9.78379 12.0073 9.68075 11.9043 9.86107 11.6467C10.1444 11.2345 10.402 10.7966 10.6339 10.3587C10.7884 10.0753 10.9172 10.0496 11.2006 10.2041C11.8961 10.5905 12.5659 10.539 13.2099 10.0753C13.6478 9.76621 14.1115 9.53437 14.5751 9.32829C15.1934 9.01917 15.5798 8.52973 15.5798 7.83422C15.5798 7.49934 15.6571 7.37054 16.0177 7.3963C16.5329 7.42206 17.0739 7.42206 17.589 7.3963C17.9239 7.3963 18.0527 7.44782 18.0527 7.83422C18.0527 8.60701 18.4649 9.09645 19.1346 9.40557C19.5726 9.58589 19.9847 9.79197 20.3711 10.0753C21.0409 10.5648 21.7622 10.642 22.4834 10.2299C22.7668 10.0753 22.8698 10.1526 22.9986 10.3844L22.9987 10.3845C23.2305 10.7967 23.4623 11.2088 23.7199 11.5952C23.9517 11.9043 23.926 12.0588 23.5653 12.2649C22.9213 12.6256 22.6638 13.2438 22.7668 13.9908C22.8183 14.4545 22.8183 14.9182 22.7668 15.4076C22.6895 15.9744 22.8698 16.438 23.2305 16.8502C23.3089 16.9384 23.4283 16.9968 23.5448 17.0537C23.7344 17.1464 23.9162 17.2352 23.9002 17.4427C23.8828 17.652 23.7472 17.8378 23.6054 18.0319C23.5379 18.1244 23.469 18.2187 23.4108 18.3185C23.2562 18.5503 23.1017 18.7822 22.9729 19.0398C22.8698 19.2459 22.741 19.2459 22.535 19.1428L22.5349 19.1428C22.0593 18.9243 21.8211 18.8148 21.7017 18.8912C21.5818 18.9679 21.5818 19.2319 21.5818 19.7611C21.5818 20.7399 21.7364 20.9975 22.4834 21.1006C23.1789 21.2036 23.8229 21.0233 24.2351 20.4308C24.7761 19.6323 25.2655 18.8079 25.7292 17.9836C26.1156 17.2881 25.8837 16.335 25.1882 15.9486C24.6988 15.6652 24.57 15.3046 24.6473 14.8152C24.6643 14.713 24.6588 14.5996 24.6531 14.4823V14.4823V14.4822C24.6502 14.4221 24.6473 14.361 24.6473 14.3C24.5957 13.9393 24.6988 13.7332 25.0337 13.5272C25.9095 13.012 26.1413 12.0846 25.6519 11.2088C25.2397 10.4875 24.8276 9.79197 24.3639 9.09645C23.9002 8.34941 23.0244 7.96302 22.3289 8.34941C21.6849 8.68429 21.2212 8.55549 20.7318 8.1691C20.603 8.06606 20.4484 7.98878 20.2938 7.93726C19.9847 7.83422 19.9074 7.6539 19.8817 7.31902C19.8817 6.3659 19.1346 5.67038 18.1815 5.64462H15.5283C14.7555 5.64462 14.0084 6.08254 13.9569 6.80382C13.8796 7.67966 13.3387 8.01454 12.6947 8.32365C12.6174 8.34941 12.5659 8.40093 12.5143 8.45245C12.2825 8.71005 12.0507 8.63277 11.7931 8.47821C10.8657 7.98878 9.93835 8.19486 9.37164 9.04493C8.90796 9.76621 8.47004 10.5132 8.03212 11.2603C7.61996 11.9816 7.74876 12.9347 8.41852 13.3211C9.03676 13.6817 9.11404 14.0939 9.03676 14.6864V15.1243C9.08828 15.4334 8.98524 15.5879 8.70188 15.7425C7.74876 16.3092 7.51692 17.2366 8.08364 18.1897L9.24284 20.1217C9.47468 20.5081 9.75803 20.8172 10.196 20.9718L10.2217 20.946ZM27.0429 28.2618C26.7596 28.3391 26.6565 28.2618 26.5535 28.0042C25.9353 26.7162 24.8018 26.1753 23.4108 26.4586C23.2047 26.5102 23.0759 26.4586 22.9729 26.2783C22.2001 24.7842 21.2727 24.3721 19.5726 24.6812V19.2716V19.2716C19.5726 19.0398 19.5726 18.7822 19.521 18.5503C19.1604 17.1335 17.8982 16.2835 16.4814 16.4638C15.1419 16.6441 14.163 17.8033 14.163 19.2201V33.2335V33.9033C12.9265 32.3834 10.7884 32.3319 9.47468 33.4138C8.08364 34.573 7.87756 36.4792 8.95948 38.0764C10.2732 39.9826 11.5612 41.8888 12.7977 43.8466C13.3902 44.7739 14.1372 45.4952 15.0903 46.0362C15.3479 46.165 15.4252 46.3453 15.4252 46.6029V49.4365C15.4252 50.1191 15.4252 50.4604 15.5959 50.6311C15.7665 50.8018 16.1079 50.8018 16.7905 50.8018C17.1511 50.8018 17.2542 50.7245 17.2542 50.3381C17.2542 49.849 17.2513 49.3599 17.2485 48.8707L17.2484 48.8698C17.2427 47.8909 17.237 46.912 17.2542 45.9331C17.2542 45.3149 17.0481 44.9285 16.5071 44.6967C15.8374 44.4133 15.2191 44.0269 14.807 43.4344C13.2871 41.2191 11.7931 39.0037 10.299 36.7626C9.86108 36.0928 10.0929 35.217 10.7369 34.7533C11.3552 34.3154 12.1795 34.4184 12.7204 34.9852C13.2356 35.5519 13.7508 36.1444 14.2403 36.7111C14.5494 37.0717 14.91 37.3551 15.3995 37.1748C15.9147 36.9944 16.0177 36.5565 16.0177 36.0413V19.6065V19.0398C16.1207 18.5503 16.4299 18.267 16.9193 18.267C17.383 18.267 17.6921 18.5761 17.7694 19.014C17.804 19.1352 17.7921 19.2679 17.7806 19.3967L17.7805 19.3967C17.7749 19.4596 17.7694 19.5216 17.7694 19.5807V31.3273C17.7694 32.0356 17.7694 32.3834 17.9432 32.554C18.1109 32.7186 18.4402 32.7185 19.0872 32.7183L19.1604 32.7183C19.521 32.7183 19.5983 32.6153 19.5983 32.2804V27.5406C19.5983 26.845 19.9332 26.4071 20.4999 26.3814C21.0409 26.3814 21.4015 26.8193 21.4015 27.5148V31.353C21.4015 32.0443 21.4015 32.392 21.5754 32.5638C21.7514 32.7377 22.1056 32.7313 22.8183 32.7183H22.8183C23.1532 32.7183 23.2305 32.6153 23.2305 32.3061V29.2665C23.2305 28.6225 23.6169 28.1845 24.1578 28.2103C24.673 28.2103 25.0337 28.6482 25.0337 29.2407V31.3273C25.0337 32.289 25.5145 32.7526 26.4762 32.7183H26.5277C26.7853 32.7698 26.8369 32.641 26.8369 32.4092V30.9924C26.8369 30.606 26.9914 30.2969 27.3521 30.1165C28.0218 29.7817 28.6401 30.2711 28.6401 31.1469V38.3082C28.6401 40.8327 27.6869 42.8162 25.5489 44.2072C25.1882 44.4391 25.0337 44.7482 25.0337 45.1861V49.4107C25.0337 50.102 25.0337 50.4497 25.2075 50.6215C25.3835 50.7954 25.7377 50.789 26.4505 50.776C26.7596 50.776 26.8626 50.673 26.8626 50.3638V46.0619C26.8626 45.7013 26.9657 45.4695 27.249 45.2119C29.3613 43.5632 30.4432 41.3479 30.469 38.6688C30.4862 36.9515 30.4805 35.2342 30.4747 33.5169C30.4719 32.6582 30.469 31.7995 30.469 30.9409C30.469 29.0604 28.9234 27.8239 27.1202 28.2361L27.0429 28.2618ZM14.2145 11.5179C12.8492 12.6771 12.3598 14.7894 13.1583 16.2062C13.5447 15.794 13.9311 15.3819 14.4463 15.1243C14.6171 15.0389 14.611 14.9182 14.6039 14.7768V14.7768V14.7767V14.7767C14.6024 14.7475 14.6009 14.7173 14.6009 14.6864C14.6009 13.3468 15.554 12.368 16.8162 12.368C18.13 12.368 19.0574 13.3211 19.0831 14.7121C19.0831 14.7293 19.0828 14.7465 19.0825 14.7636V14.7637V14.7638C19.0799 14.9005 19.0775 15.0327 19.2377 15.1243C19.6825 15.3584 20.0422 15.7202 20.4135 16.0936L20.4136 16.0937C20.4508 16.1311 20.4881 16.1687 20.5257 16.2062C21.3242 14.7379 20.8348 12.6256 19.418 11.4664C17.8982 10.2041 15.7086 10.2299 14.1887 11.5179H14.2145ZM28.7173 16.1804C28.8204 16.2577 29.0522 16.3865 29.0522 16.3865V16.3607C30.8809 17.5456 32.7354 18.7304 34.5899 19.9152L34.5901 19.9153L34.5904 19.9155L34.5906 19.9156C34.874 20.0959 35.0028 20.2505 34.7452 20.5596C34.6424 20.6904 34.5566 20.8551 34.4729 21.0156C34.326 21.2975 34.1858 21.5665 33.9724 21.6158C33.7456 21.6725 33.4355 21.438 33.1441 21.2175C33.0383 21.1374 32.9349 21.0593 32.8389 20.9975C31.2418 19.9671 29.6447 18.9367 28.0476 17.9321C27.6612 17.7003 27.6354 17.5199 27.893 17.2108C28.0609 17.0243 28.1883 16.8107 28.3143 16.5994L28.3143 16.5994L28.3143 16.5994C28.3623 16.519 28.41 16.4389 28.4597 16.3607C28.4795 16.341 28.4958 16.3196 28.5119 16.2987L28.5119 16.2986L28.5119 16.2986C28.5586 16.2375 28.6023 16.1804 28.7173 16.1804ZM6.58956 19.4519C6.51228 19.2716 6.435 19.2459 6.25468 19.3489C5.27578 19.9156 4.29044 20.4759 3.3051 21.0362C2.31981 21.5965 1.33452 22.1567 0.355664 22.7234C0.338062 22.7352 0.315113 22.7456 0.291081 22.7565L0.291057 22.7565C0.209586 22.7934 0.115673 22.8359 0.175345 22.9553C0.304144 23.1871 0.432944 23.4125 0.561743 23.6379C0.690543 23.8633 0.819343 24.0887 0.948142 24.3206C0.948142 24.3561 0.984982 24.3671 1.02475 24.379C1.04258 24.3844 1.06099 24.3899 1.07694 24.3978C1.14134 24.3592 1.1993 24.327 1.25726 24.2948C1.31522 24.2626 1.37318 24.2304 1.43758 24.1918L6.15165 21.487C6.26849 21.4212 6.40398 21.3638 6.53931 21.3064L6.53933 21.3064C6.88135 21.1614 7.22241 21.0168 7.25932 20.7399C7.29323 20.5026 7.104 20.2318 6.9119 19.9569C6.81211 19.8141 6.71154 19.6701 6.64108 19.5292C6.64108 19.5185 6.63224 19.5079 6.62189 19.4954C6.60724 19.4777 6.58956 19.4564 6.58956 19.4262V19.4519Z" fill="#1F2430"></path>
</svg>
