<?xml version="1.0" encoding="UTF-8"?>
<svg xmlns="http://www.w3.org/2000/svg" width="51" height="51" viewBox="0 0 51 51" fill="none">
  <path fill-rule="evenodd" clip-rule="evenodd" d="M48.6383 33.6911C48.4134 33.3698 48.3812 33.1127 48.5098 32.7271C49.7309 28.9352 50.0201 25.079 49.4095 21.1586C47.5457 9.42948 37.1341 0.592464 25.18 0.624599C23.4769 0.624599 21.7738 0.785272 20.0706 1.13875C6.83119 4.09514 -1.52381 16.9168 1.20763 30.1563C4.09975 44.2955 18.9459 52.9076 32.6674 48.4409C33.1494 48.2802 33.5029 48.3123 33.9528 48.6337C36.2343 50.3047 38.8372 50.9152 41.6008 50.4975C49.5381 49.3406 53.3621 40.1823 48.6383 33.6911ZM26.7225 47.284C26.3866 47.312 26.3921 47.1449 26.3991 46.9315L26.3991 46.9314C26.4001 46.8998 26.4012 46.8672 26.4012 46.8341V44.1027C26.4012 43.1708 25.9513 42.6567 25.2443 42.6567C24.5373 42.6567 24.0875 43.2029 24.0875 44.1348V46.8663C24.0875 47.1876 24.0232 47.3162 23.6376 47.284C19.3315 46.9306 14.4792 45.356 10.3339 41.5319L10.3342 41.5316L10.3343 41.5315C11.1054 40.7926 11.8765 40.0536 12.6476 39.2825C13.2902 38.6398 13.3545 38.0293 12.8404 37.5151C12.3262 37.001 11.6835 37.0331 11.073 37.6758C10.829 37.9198 10.585 38.1673 10.3387 38.4171L10.3385 38.4173L10.3385 38.4173C9.83875 38.9242 9.32949 39.4408 8.7914 39.9573C7.44175 38.5113 6.3813 36.9367 5.48154 35.2014C4.13188 32.5664 3.36065 29.7707 3.07144 26.8143C3.03931 26.3644 3.10358 26.2037 3.61773 26.2037C4.15574 26.2253 4.69375 26.218 5.22211 26.2108C5.4827 26.2072 5.74095 26.2037 5.99569 26.2037C7.1204 26.2037 7.66669 25.8181 7.69882 25.0469C7.69882 24.2757 7.1204 23.8579 5.96355 23.8579H3.48919C3.10358 23.8579 3.00717 23.7294 3.03931 23.3759C3.39279 19.102 4.96738 14.2818 8.75926 10.1364C9.12881 10.5221 9.5064 10.8996 9.88398 11.2772C10.2616 11.6548 10.6391 12.0324 11.0087 12.418C11.6514 13.0607 12.2619 13.125 12.7761 12.6108C13.3224 12.0967 13.2581 11.454 12.5833 10.7791C12.2177 10.4135 11.8442 10.0479 11.4667 9.67838L11.4667 9.67832C11.0811 9.30089 10.6914 8.9194 10.3017 8.52971C13.3224 5.79827 16.7929 4.063 20.7455 3.2275C21.239 3.11784 21.7428 3.04976 22.2453 2.98187L22.2453 2.98187C22.6262 2.9304 23.0064 2.87904 23.3805 2.80975C23.8625 2.74548 24.1196 2.80975 24.0553 3.38817C24.0125 3.9666 24.0268 4.54502 24.041 5.12344C24.0482 5.41265 24.0553 5.70187 24.0553 5.99108C24.0553 6.85871 24.5052 7.405 25.18 7.405C25.887 7.405 26.369 6.89085 26.369 5.99108V3.25964C26.369 2.90616 26.4333 2.77762 26.851 2.80975C31.8962 3.25964 36.2986 5.12344 40.1226 8.52971L40.0744 8.57604C39.2884 9.33058 38.5332 10.0555 37.8089 10.8113C37.1662 11.454 37.1341 12.0967 37.6804 12.5787C38.1946 13.0607 38.8051 13.0286 39.4157 12.418C39.7973 12.0363 40.1711 11.6547 40.5488 11.2691L40.5488 11.2691C40.9342 10.8755 41.3236 10.478 41.7294 10.0722C43.9145 12.4823 45.4891 15.2137 46.4531 18.2986C46.9673 19.9054 47.2565 21.5764 47.4172 23.2474C47.4493 23.6651 47.4172 23.8258 46.9352 23.7936C46.3342 23.7722 45.7188 23.7794 45.1083 23.7865H45.1082C44.8047 23.7901 44.5025 23.7936 44.2037 23.7936C43.3361 23.7936 42.8219 24.2757 42.8219 24.9505C42.8219 25.6574 43.3361 26.0752 44.2037 26.1073H46.9352C47.3208 26.1073 47.4493 26.2037 47.4172 26.6215C47.2565 28.1961 46.9994 29.7707 46.5174 31.3453C44.0752 29.5779 41.3759 28.8709 38.3874 29.3529C35.9451 29.7385 33.8885 30.8954 32.2175 32.7271C29.3897 35.7798 28.1043 41.2749 31.5748 46.2557C30.0002 46.7699 28.3614 46.9948 26.7225 47.1555V47.284ZM40.0584 48.3123C35.431 48.3123 31.7355 44.5847 31.7676 39.9573C31.7676 35.3942 35.4952 31.6666 40.0905 31.6666C44.7179 31.6666 48.4134 35.3621 48.4134 39.9895C48.4134 44.6169 44.6857 48.3123 40.0584 48.3123ZM25.2122 10.7791C24.7302 10.7791 24.3445 11.0041 24.1517 11.454C24.0232 11.7432 24.0232 12.0324 24.0232 12.3537V23.2474C24.0232 23.8579 23.8625 23.9543 23.2841 23.9543H13.8687C13.5473 23.9543 13.2581 23.9543 12.9689 24.0829C12.519 24.2757 12.2941 24.6291 12.2941 25.1433C12.2941 25.6574 12.5511 25.9788 13.001 26.1716C13.2414 26.2784 13.4817 26.2743 13.7404 26.2698C13.7931 26.2689 13.8465 26.268 13.9008 26.268H24.7302C25.9513 26.268 26.3369 25.8824 26.3369 24.6934V18.4914V12.3537C26.3369 12.0324 26.3369 11.7432 26.2083 11.454C26.0155 11.0041 25.6621 10.747 25.18 10.747L25.2122 10.7791ZM43.2076 35.3942C43.4968 34.9765 43.8502 34.6551 44.3965 34.6551V34.623C45.232 34.6551 45.7462 35.587 45.2963 36.3261C43.8824 38.6077 42.4685 40.8571 40.9903 43.0744C40.5404 43.7171 39.737 43.7171 39.2229 43.1387C38.0339 41.789 36.877 40.4072 35.7523 38.9933C35.3346 38.4792 35.431 37.8043 35.913 37.4187C36.4272 37.001 37.0377 37.0331 37.4876 37.5472C38.0547 38.1798 38.5922 38.8272 39.1504 39.4994C39.4145 39.8175 39.6833 40.1412 39.962 40.4715C41.0864 38.7367 42.1465 37.0661 43.2067 35.3956L43.2076 35.3942Z" fill="#1F2430"></path>
</svg>
