<?xml version="1.0" encoding="UTF-8"?>
<svg xmlns="http://www.w3.org/2000/svg" width="50" height="51" viewBox="0 0 50 51" fill="none">
  <path fill-rule="evenodd" clip-rule="evenodd" d="M4.34491 9.59146C4.25919 9.39146 4.20205 9.19145 4.15919 8.97896L4.14491 9.00395C3.85919 7.61645 2.93062 6.67896 1.50205 6.07896C0.773479 5.76646 0.573479 5.16646 0.973479 4.62896C1.10205 4.45396 1.28777 4.34145 1.48777 4.26646C3.03062 3.65395 3.93062 2.61646 4.20205 1.16646C4.28777 0.703955 4.51634 0.341455 4.98777 0.116455H5.65919C6.11634 0.328955 6.35919 0.653955 6.44491 1.10396C6.71634 2.59146 7.64491 3.65395 9.21634 4.27895C9.64491 4.45396 9.88777 4.75395 9.88777 5.15395C9.90205 5.56645 9.65919 5.87895 9.23062 6.04145C7.63062 6.66645 6.71634 7.74146 6.44491 9.25395C6.37348 9.64146 6.20205 9.97895 5.75919 10.1415C5.20205 10.3415 4.55919 10.0915 4.34491 9.59146ZM7.51634 5.14146C6.57348 4.59146 5.87348 3.91646 5.33062 2.99146C4.81634 3.94145 4.07348 4.59145 3.17348 5.15395C4.13062 5.71645 4.83062 6.40396 5.35919 7.30396C5.85919 6.35396 6.61634 5.70396 7.51634 5.14146ZM39.0163 10.5915C40.1449 10.579 40.8306 10.9415 41.3878 11.7915V11.8165C43.1582 14.5556 44.9671 17.2864 46.7751 20.0157L46.7775 20.0194C47.1716 20.6143 47.5656 21.2091 47.9592 21.804C48.502 22.6165 48.4592 23.004 47.7306 23.7165C40.646 30.6404 33.5613 37.5769 26.4767 44.5133L26.4735 44.5165C26.4592 44.529 26.4485 44.5415 26.4378 44.554C26.4271 44.5665 26.4163 44.579 26.4021 44.5915C25.4306 45.5165 24.7163 45.5165 23.7735 44.5915C20.9024 41.7918 18.0457 38.9922 15.1889 36.1926L15.1878 36.1915C10.9306 32.029 6.68777 27.8665 2.44491 23.704C1.73062 23.004 1.67348 22.629 2.20205 21.829C2.48577 21.3991 2.77073 20.9682 3.05621 20.5366L3.05647 20.5362L3.05741 20.5348C3.73464 19.5107 4.41473 18.4823 5.08777 17.454C5.31634 17.1165 5.63062 16.9415 6.05919 17.029C6.45919 17.1165 6.68777 17.3665 6.71634 17.729C6.74368 17.9443 6.62709 18.1138 6.50432 18.2924L6.48777 18.3165C5.96445 19.0949 5.4488 19.88 4.9352 20.662C4.74778 20.9474 4.56063 21.2324 4.37348 21.5165C4.29197 21.6183 4.21996 21.7368 4.14196 21.8652L4.14189 21.8653L4.14158 21.8658C4.12401 21.8947 4.10613 21.9241 4.08777 21.954H16.1163C14.1021 18.8915 12.1163 15.879 10.1021 12.8415C9.9419 13.0828 9.78453 13.3205 9.62906 13.5553L9.62899 13.5554L9.6286 13.556C9.28497 14.075 8.95065 14.5799 8.61634 15.079C8.27348 15.5915 7.84491 15.729 7.38777 15.5165C6.90205 15.2915 6.80205 14.8415 7.13062 14.3415C7.52855 13.7321 7.9322 13.1228 8.33795 12.5103L8.33797 12.5103L8.33799 12.5103C8.57316 12.1553 8.80903 11.7992 9.04491 11.4415C9.40205 10.904 9.91634 10.6165 10.6306 10.604H11.0735C13.4022 10.604 15.7309 10.6047 18.0596 10.6055C25.0452 10.6079 32.0308 10.6102 39.0163 10.5915ZM35.5947 16.6731C36.5947 15.1573 37.5948 13.6416 38.6021 12.1165H38.5878H26.5735C28.064 14.3827 29.5389 16.6146 31.0213 18.858C31.5422 19.6463 32.064 20.4359 32.5878 21.229C33.5948 19.7041 34.5947 18.1886 35.5947 16.6731ZM23.6021 12.1165H11.5735C13.5878 15.179 15.5592 18.1665 17.5878 21.229C18.8394 19.3393 20.0694 17.4735 21.301 15.605C22.0655 14.4453 22.8306 13.2845 23.6021 12.1165ZM7.03062 23.454H4.47348V23.4665C6.64612 25.5953 8.80824 27.7134 10.966 29.8272L10.9718 29.8329L10.984 29.8449C14.9777 33.7572 18.9564 37.6549 22.9592 41.579C22.9439 41.4922 22.9368 41.4339 22.9313 41.389C22.9266 41.3497 22.923 41.3206 22.9163 41.2915C22.4766 39.9759 22.0369 38.6611 21.5974 37.3467C20.0948 32.8536 18.5941 28.3663 17.1021 23.879C16.9735 23.5165 16.7878 23.454 16.4021 23.454H7.03062ZM25.0163 42.254C25.1878 42.204 25.1878 42.079 25.1878 42.079H25.2021L29.1021 30.4915C29.3497 29.7581 29.5957 29.0248 29.8417 28.2914C30.3338 26.8248 30.8259 25.3581 31.3306 23.8915C31.4306 23.604 31.4878 23.4165 31.0021 23.4415C30.5878 23.454 30.3592 23.204 30.2449 22.8915C30.1021 22.479 30.4021 22.1415 31.0878 21.929L31.0862 21.9266C29.101 18.9149 27.1158 15.9032 25.0878 12.8415C23.0592 15.904 21.0735 18.9165 19.0592 21.979H26.4021C27.2878 21.979 27.7163 22.2165 27.7163 22.7165C27.7306 23.2165 27.3021 23.454 26.4163 23.454H18.7306C19.6817 26.3015 20.6328 29.1439 21.5825 31.9823L21.5826 31.9827L21.5827 31.983L21.5831 31.9841C22.7302 35.4125 23.8754 38.8351 25.0163 42.254ZM27.2493 41.4996L27.1735 41.4665C27.7021 39.8665 28.2306 38.2665 28.7735 36.679C30.2163 32.4165 31.6592 28.1415 33.0878 23.879L33.1023 23.8383C33.1796 23.6204 33.2386 23.454 33.6021 23.454C36.2473 23.4623 38.8862 23.4595 41.5731 23.4568C42.9348 23.4554 44.3087 23.454 45.7021 23.454C43.4014 25.7036 41.1105 27.9447 38.8259 30.1797C34.9552 33.9662 31.1023 37.7354 27.2493 41.4996ZM36.3892 18.4773L36.3871 18.4805C35.6232 19.6393 34.8586 20.7992 34.0878 21.9665H46.1163C45.1091 20.4413 44.109 18.9256 43.1089 17.4098L43.107 17.4069C42.1077 15.8923 41.1085 14.3778 40.1021 12.854C38.8505 14.7434 37.6207 16.6091 36.3892 18.4773ZM45.2592 42.4665C44.7449 42.2415 44.2449 41.9915 43.7592 41.729C43.3306 41.4915 42.8592 41.5915 42.5878 41.9415C42.3449 42.2665 42.4163 42.679 42.7878 42.9415C42.9179 43.0285 43.0522 43.1084 43.1905 43.1908L43.1906 43.1908C43.3104 43.2621 43.4333 43.3353 43.5592 43.4165C41.8735 44.2915 40.6449 45.4665 39.9306 47.1415C39.2163 45.4665 38.002 44.279 36.2735 43.404C38.002 42.504 39.2449 41.3165 39.9163 39.6915C40.3163 40.129 40.702 40.2665 41.0735 40.104C41.4735 39.9415 41.6592 39.6415 41.5592 39.2665C41.3878 38.6165 41.2163 37.979 40.9878 37.3415C40.8306 36.9165 40.4449 36.6915 39.9163 36.704C39.402 36.704 39.0306 36.929 38.8592 37.3665C38.7816 37.5588 38.7274 37.7614 38.6755 37.9557L38.6755 37.9557L38.6592 38.0165C38.2306 40.079 36.9163 41.554 34.7163 42.4165C34.2592 42.5915 33.9735 42.8915 33.9592 43.354C33.9306 43.904 34.2878 44.2165 34.8163 44.429C36.8163 45.254 38.1306 46.5665 38.5735 48.504C38.6449 48.8165 38.7306 49.1415 38.8592 49.4415C39.1163 50.054 39.8735 50.304 40.4878 49.979C40.902 49.7665 41.0306 49.4165 41.1163 49.0415C41.4306 47.5665 42.0449 46.2415 43.4449 45.279C44.002 44.8915 44.6163 44.604 45.2449 44.329C45.6735 44.1415 45.902 43.804 45.902 43.379C45.902 42.979 45.6735 42.6665 45.2592 42.479V42.4665ZM47.3306 7.86646C47.5449 8.95395 48.1592 9.72896 49.3163 10.2165H49.3021C50.0163 10.5165 49.9878 11.404 49.2592 11.7165C48.1449 12.1915 47.5449 12.929 47.3449 13.9915C47.2592 14.4415 46.8735 14.704 46.3592 14.704C45.8449 14.704 45.4735 14.429 45.3878 13.979C45.1878 12.9165 44.5735 12.1915 43.4592 11.704C42.702 11.379 42.7306 10.4915 43.4878 10.179C44.602 9.71646 45.1878 8.97896 45.3878 7.94145C45.4735 7.50395 45.802 7.21645 46.1735 7.21645C46.8735 7.20396 47.2449 7.45396 47.3306 7.86646ZM46.102 11.6665C46.3163 11.929 46.4306 11.979 46.6592 11.6665L46.6735 11.679C46.7509 11.5695 46.8804 11.4666 47.0052 11.3675C47.1797 11.2289 47.3449 11.0977 47.3449 10.9665C47.3352 10.8045 47.1262 10.6426 46.9172 10.4807C46.8197 10.4051 46.7222 10.3295 46.6449 10.254C46.5992 10.2139 46.5575 10.1668 46.5112 10.1144C46.4708 10.0687 46.4268 10.0189 46.3735 9.96646C46.3485 9.99564 46.3247 10.0248 46.3014 10.0534C46.2449 10.1227 46.1913 10.1883 46.1306 10.2415C46.0539 10.3123 45.9607 10.382 45.8677 10.4516C45.6487 10.6154 45.4306 10.7785 45.4306 10.954C45.4306 11.0883 45.5986 11.2226 45.7766 11.3649C45.8967 11.4609 46.0214 11.5606 46.102 11.6665Z" fill="#1F2430"></path>
</svg>
