<?xml version="1.0" encoding="UTF-8"?>
<svg xmlns="http://www.w3.org/2000/svg" width="51" height="51" viewBox="0 0 51 51" fill="none">
  <path fill-rule="evenodd" clip-rule="evenodd" d="M50.624 1.44987C50.5212 1.58518 50.4185 1.72049 50.2932 1.83325L50.2306 1.85413C47.4012 4.49558 44.577 7.14225 41.7529 9.78892C38.9287 12.4356 36.1045 15.0823 33.2751 17.7238C32.9619 18.0161 32.9828 18.1414 33.2751 18.4129C35.4049 20.5113 37.5347 22.615 39.6644 24.7187C41.7944 26.8225 43.9244 28.9264 46.0544 31.0251C46.136 31.1067 46.2046 31.2014 46.2748 31.2982C46.3302 31.3747 46.3866 31.4525 46.4511 31.5262C47.4116 30.6283 48.3304 29.7722 49.2283 28.9369C49.8965 28.3314 50.3141 28.3732 50.7526 29.1458V29.3337C50.7127 29.3935 50.6771 29.4575 50.641 29.5224C50.5636 29.6615 50.484 29.8045 50.3559 29.9184C49.2701 30.8998 48.2051 31.9021 47.1402 32.9044C46.639 33.3846 46.3049 33.3637 45.8247 32.9044C45.428 32.5286 45.0105 32.111 44.6138 31.7144L44.6136 31.7141C44.4883 31.568 44.3839 31.4844 44.2168 31.6724C43.8952 32.022 43.5641 32.3623 43.23 32.7057C43.0653 32.875 42.8998 33.0452 42.7343 33.2176C42.7612 33.2365 42.7872 33.2546 42.8122 33.2722C42.9812 33.3907 43.1108 33.4816 43.2563 33.5726C44.1124 34.1363 44.5927 34.9298 44.6762 35.953C44.8433 37.8323 43.1936 39.4193 41.3143 39.2105C41.2977 39.2071 41.281 39.2035 41.2642 39.2C41.0704 39.1584 40.8758 39.1168 40.8758 39.4819C40.7923 41.2568 39.3306 42.5306 37.5557 42.3844C37.1799 42.3635 37.1172 42.447 37.0964 42.802C36.9919 44.556 35.2588 45.8298 33.7345 45.5583C33.463 45.4957 33.3586 45.5374 33.3377 45.8715C33.1916 47.375 32.231 48.4608 30.7903 48.7114C29.8715 48.8784 29.0362 48.5861 28.2428 48.0432C27.7207 49.1499 26.9481 49.9434 25.7788 50.2983H24.505C24.4583 50.2783 24.4114 50.2584 24.3645 50.2385C23.8246 50.0093 23.2798 49.778 22.8763 49.3169C22.5422 48.9202 22.2708 48.5026 22.1663 48.0014C22.1246 47.7717 21.9993 47.7091 21.7905 47.7717C20.2244 48.2102 18.4495 47.0409 18.1572 45.4957C18.0911 45.2312 17.9334 45.2808 17.798 45.3232C17.7624 45.3344 17.7283 45.3452 17.6978 45.3495C16.4658 45.5583 15.4635 45.1407 14.6909 44.1802C14.4194 43.867 14.2524 43.4911 14.1689 43.0943C14.1062 42.8647 14.0645 42.8229 13.8139 42.8647C12.4984 43.1152 11.3917 42.7394 10.6191 41.6118C9.86736 40.4842 9.90913 39.294 10.6191 38.1455C10.8279 37.8114 10.7861 37.6861 10.452 37.5191C9.76296 37.1641 9.09476 36.7674 8.42657 36.3706C8.13423 36.2036 7.98806 36.1827 7.86278 36.5586C7.6481 37.1847 7.40278 37.7955 7.15307 38.4172C7.1113 38.5212 7.06942 38.6255 7.02753 38.7302C6.77696 39.3775 6.46374 39.5237 5.81643 39.294C4.37563 38.772 2.91395 38.2499 1.47315 37.7488C1.07641 37.6026 0.804956 37.352 0.867599 36.8927C0.930243 36.3915 1.36875 36.1618 1.93254 36.3497C2.2251 36.4524 2.51639 36.5538 2.80674 36.6549C3.69761 36.9649 4.57953 37.2719 5.46145 37.6026C5.79555 37.7279 5.87907 37.6653 6.00436 37.352C8.02983 32.09 10.0971 26.828 12.1643 21.5868C12.3105 21.2109 12.2687 21.0856 11.8928 20.9395C9.89444 20.1474 7.90315 19.3483 5.91483 18.5503C4.49591 17.9808 3.0785 17.412 1.66108 16.8468L1.34787 16.7215C0.909361 16.4918 0.742312 16.1159 0.909361 15.7192C1.07641 15.3642 1.47315 15.1763 1.93254 15.3642C3.60303 16.0115 5.27352 16.6797 6.94401 17.3479C7.96719 17.7551 8.98516 18.1623 10.0031 18.5695C11.0211 18.9767 12.039 19.3838 13.0622 19.791C14.1271 20.2295 14.1898 20.3966 13.793 21.4615C13.7696 21.4967 13.7593 21.5384 13.7474 21.5868C13.7381 21.6245 13.7278 21.6663 13.7095 21.7121C14.8788 21.9 16.0482 22.1088 17.2175 22.3176C17.4325 22.3535 17.586 22.2817 17.744 22.2078C17.7701 22.1956 17.7964 22.1833 17.8231 22.1715C18.2824 21.9621 18.7434 21.7561 19.2041 21.5501C20.3981 21.0163 21.5909 20.483 22.751 19.8954C23.6698 19.436 24.5677 19.3943 25.5282 19.4987C26.767 19.6226 27.9985 19.7244 29.2269 19.826C30.0692 19.8956 30.91 19.9652 31.7508 20.0416H32.1475C32.3146 20.0207 32.4399 19.8954 32.5025 19.791C32.5812 19.6808 32.4938 19.6181 32.4102 19.5581C32.3829 19.5385 32.356 19.5192 32.3355 19.4987C32.2102 19.3629 32.0744 19.2324 31.9387 19.1019C31.803 18.9714 31.6673 18.8409 31.542 18.7052C31.0408 18.204 31.0617 17.8491 31.5837 17.3479C32.5234 16.4604 33.4683 15.5782 34.4132 14.6959C35.3581 13.8137 36.3029 12.9315 37.2425 12.0441C39.2579 10.1541 41.268 8.26925 43.2781 6.38443C45.2876 4.50021 47.2971 2.61599 49.3118 0.726545C50.0009 0.0792304 50.4603 0.162755 50.8361 0.998V1.18593C50.761 1.26945 50.6925 1.35966 50.624 1.44987ZM13.2292 41.4239C13.8557 41.4239 14.315 41.1315 14.6283 40.6095H14.6491C15.9855 38.4587 17.3219 36.308 18.6374 34.1572C19.1595 33.2802 18.9507 32.2779 18.1572 31.8185C17.3637 31.3383 16.4449 31.6097 15.902 32.4867C15.5691 33.0012 15.2472 33.5267 14.9283 34.0472C14.8071 34.245 14.6864 34.442 14.5656 34.6375C13.6677 36.0574 12.7698 37.4982 11.9137 38.939C11.2246 40.0875 11.9555 41.4239 13.2292 41.4239ZM16.4032 43.679C17.1758 44.1384 18.0945 43.8878 18.6166 43.0526H18.6374C19.4087 41.8277 20.169 40.5918 20.9262 39.3609C21.2146 38.8921 21.5025 38.4241 21.7905 37.9576C21.9784 37.6653 22.0828 37.352 22.0828 37.0806C22.0828 36.2871 21.6443 35.6815 21.0179 35.4727C20.287 35.243 19.5562 35.5145 19.1177 36.2036C18.0319 37.9158 16.9669 39.649 15.9229 41.3821C15.4009 42.2382 15.6097 43.1988 16.4032 43.679ZM20.3288 46.1012C21.0179 46.5606 21.9575 46.4562 22.4169 45.7671C23.3775 44.3681 24.2753 42.9482 25.0688 41.4656C25.6117 40.4216 24.8391 39.1687 23.628 39.1687C23.0642 39.2105 22.6049 39.461 22.2708 39.9831C22.1141 40.2336 21.9575 40.4894 21.8009 40.7452C21.6443 41.001 21.4877 41.2568 21.3311 41.5074C21.2304 41.6685 21.1297 41.8288 21.0293 41.9887C20.6092 42.6576 20.1944 43.3181 19.8068 43.9922C19.3892 44.744 19.6397 45.6418 20.3288 46.1012ZM27.544 46.4428C27.7483 46.1047 27.9523 45.7674 28.1592 45.433C28.3054 45.1616 28.3889 44.8901 28.368 44.6396C28.368 43.8461 27.9713 43.2823 27.2822 43.0526C26.614 42.8438 25.9249 43.0735 25.5073 43.6999C24.9227 44.5978 24.3589 45.5166 23.816 46.4353C23.628 46.7485 23.5445 47.0826 23.6071 47.4585C23.7533 48.1685 24.1918 48.6696 24.9018 48.7949C25.5909 48.9411 26.1546 48.6696 26.5305 48.0849C26.8794 47.5423 27.2122 46.9916 27.544 46.4428ZM33.8389 20.9812C33.6301 20.7724 33.5257 20.8768 33.3795 21.023V21.0021C33.0454 21.3153 32.7322 21.6077 32.2102 21.5659C29.9663 21.3531 27.7045 21.1583 25.458 20.9647C25.2794 20.9493 25.101 20.934 24.9227 20.9186C24.5259 20.8768 24.1501 20.8977 23.7533 21.0856C23.1306 21.3909 22.5008 21.6747 21.8722 21.958C21.4257 22.1592 20.9799 22.3601 20.5376 22.5682C20.4268 22.6172 20.3157 22.6663 20.2045 22.7153C19.2263 23.1472 18.2364 23.5842 17.2802 24.0716C16.6537 24.3849 16.3823 24.9695 16.4867 25.6586C16.5911 26.3268 16.9669 26.7653 17.6351 26.9741C18.1363 27.1412 18.5539 26.995 18.9924 26.7862C19.4493 26.5799 19.9087 26.3709 20.3699 26.1613C21.2155 25.7767 22.0668 25.3896 22.9181 25.0113C23.3983 24.8025 23.7951 24.9487 23.983 25.3454C24.1709 25.7421 24.0248 26.1389 23.5654 26.3477L23.5653 26.3477C22.1454 27.0159 20.7255 27.6841 19.2848 28.2896C18.0319 28.8117 16.8625 28.582 15.8811 27.6214C15.0459 26.8071 14.5239 25.241 15.6306 23.5496C15.4516 23.5198 15.275 23.4911 15.1004 23.4628C14.542 23.3722 14.0048 23.2851 13.4798 23.1738C13.2314 23.1323 13.1677 23.2757 13.0852 23.4613L13.0831 23.4661L8.76066 34.4913C8.65626 34.7419 8.7189 34.8254 8.92771 34.9298C9.4183 35.1905 9.89764 35.4623 10.3822 35.7372C10.5577 35.8367 10.7338 35.9366 10.9114 36.0365C11.4404 36.3289 11.872 36.2105 12.206 35.6815C12.9993 34.3873 13.8135 33.0721 14.6276 31.757L14.6283 31.7559C15.3591 30.5657 16.5702 29.9601 17.7813 30.1689C19.4518 30.4613 20.4541 31.735 20.3706 33.5099C20.3497 33.844 20.4123 33.9275 20.7673 33.9484C22.5422 34.1155 23.7533 35.6607 23.5236 37.4564C23.5027 37.6653 23.5236 37.7488 23.7533 37.7488C25.6953 37.9158 26.8228 39.2313 26.6976 41.1733C26.6767 41.4656 26.7184 41.5491 27.0317 41.5491C28.0339 41.5909 28.8274 42.0712 29.3703 42.9064C30.1221 44.0966 30.0177 45.3078 29.2868 46.4771C29.078 46.7903 29.1406 46.9156 29.433 47.0618C30.2682 47.5003 31.2079 47.2915 31.6673 46.5606C32.1475 45.8089 31.9178 44.8484 31.1035 44.3263C30.9573 44.2324 30.8111 44.1436 30.665 44.0549C30.5188 43.9661 30.3726 43.8774 30.2265 43.7834C30.0177 43.6581 29.8506 43.512 29.8088 43.2614C29.7462 42.9482 29.8297 42.6767 30.1012 42.4888C30.3726 42.28 30.665 42.3217 30.9573 42.4888C31.0599 42.5536 31.1622 42.6184 31.2642 42.6831C31.9513 43.1185 32.6287 43.5478 33.3377 43.9296C34.0895 44.3472 35.0082 44.0758 35.4467 43.3867C35.8852 42.6976 35.7182 41.7788 35.05 41.2568C34.8621 41.1106 34.6533 40.9854 34.4445 40.8601C34.1372 40.6669 33.8262 40.4775 33.5162 40.2886C33.0889 40.0283 32.6634 39.769 32.2519 39.5028C31.8552 39.2522 31.7717 38.8346 31.9805 38.4796C32.1893 38.1246 32.586 38.0202 33.0037 38.229C33.0947 38.2594 33.1747 38.3118 33.2516 38.3622C33.2806 38.3811 33.3092 38.3998 33.3377 38.417L36.9084 40.6095C37.2634 40.8392 37.6601 41.0062 38.0986 40.9227C38.8295 40.7765 39.2889 40.338 39.4559 39.6281C39.6021 39.0225 39.3098 38.3335 38.7042 37.9576C37.681 37.2894 36.637 36.663 35.5929 36.0365C35.4412 35.9407 35.2865 35.8449 35.1298 35.7479C34.8768 35.5913 34.6189 35.4316 34.3609 35.2639C33.9224 34.9716 33.818 34.554 34.0477 34.1781C34.2774 33.8231 34.695 33.7605 35.1544 34.0111C35.1857 34.0319 35.2223 34.0528 35.2588 34.0737C35.2954 34.0946 35.3319 34.1155 35.3632 34.1363C36.2611 34.6793 37.159 35.2326 38.0569 35.786C38.9548 36.3393 39.8527 36.8927 40.7506 37.4356C41.8364 38.1038 43.1101 37.54 43.2563 36.3289C43.3398 35.598 42.9848 35.0551 42.3584 34.6793C41.5336 34.1781 40.714 33.6717 39.8944 33.1654C39.0749 32.659 38.2553 32.1526 37.4305 31.6515C37.2634 31.5471 37.0964 31.4427 36.9711 31.2965C36.6996 31.0251 36.6787 30.691 36.8875 30.3986C37.0964 30.1272 37.3887 30.0019 37.7437 30.1272C37.8501 30.1728 37.9455 30.2295 38.046 30.2892C38.0834 30.3115 38.1216 30.3342 38.1613 30.3569L41.2308 32.2362C41.4187 32.3615 41.544 32.3823 41.7111 32.1944C41.985 31.8995 42.2695 31.6045 42.5566 31.3069C42.8386 31.0145 43.1231 30.7196 43.4025 30.4195C42.3321 29.3632 41.2618 28.3092 40.1923 27.256C38.0694 25.1655 35.9495 23.078 33.8389 20.9812ZM25.0688 24.4475C25.1524 24.0508 25.4238 23.8211 25.9667 23.8211V23.7793C26.2553 23.8546 26.5571 23.9054 26.8648 23.9571C27.581 24.0777 28.3288 24.2035 29.0154 24.6563C30.4837 25.6139 31.9764 26.5227 33.4655 27.4293C33.9247 27.7089 34.3835 27.9882 34.8412 28.2687C34.9874 28.3523 35.1335 28.4567 35.2588 28.582C35.5094 28.8325 35.5512 29.1458 35.3632 29.4381C35.1753 29.7513 34.883 29.8975 34.528 29.7722C34.3815 29.7356 34.235 29.6508 34.1026 29.5741C34.084 29.5634 34.0657 29.5528 34.0477 29.5425C33.4953 29.2005 32.9388 28.8607 32.3814 28.5202C31.1689 27.7797 29.9521 27.0366 28.7648 26.2642C27.9713 25.763 27.157 25.4707 26.2382 25.3663C26.0503 25.3454 25.8624 25.3036 25.6744 25.2619L25.6744 25.2619C25.2568 25.1575 24.9853 24.8025 25.0688 24.4475Z" fill="#1F2430"></path>
</svg>
