<?xml version="1.0" encoding="UTF-8"?>
<svg xmlns="http://www.w3.org/2000/svg" width="44" height="51" viewBox="0 0 44 51" fill="none">
  <path d="M40.8303 41.4797C40.5635 41.4797 40.27 41.4531 40.0033 41.4797C39.6031 41.5331 39.4697 41.373 39.3897 40.9996C39.1763 39.8791 38.6694 38.9187 37.9224 38.065C36.4552 36.3844 34.5878 35.6641 32.4002 35.6641C29.3857 35.6641 26.3978 35.6641 23.3833 35.6641C22.9298 35.6641 22.823 35.5574 22.8497 35.1305C22.8764 34.1968 22.8497 33.2631 22.8497 32.3294C22.8497 31.5647 23.2232 31.1823 23.9702 31.1823C25.3841 31.1823 26.3978 30.2753 26.4512 28.8614C26.5045 27.3141 26.4778 25.7935 26.4512 24.2462C26.4245 22.8856 25.4641 21.9786 24.1036 21.9253C23.8101 21.9253 23.5167 21.9253 23.2232 21.9253C22.9031 21.9253 22.823 21.8185 22.823 21.5251C22.823 20.5114 22.823 19.4976 22.823 18.4839C22.823 18.1637 22.9564 18.1104 23.2232 18.1104C26.3711 18.1104 29.5457 18.1104 32.6937 18.1104C34.6411 18.1371 36.1084 19.0441 37.0154 20.8048C37.5756 21.8719 37.5489 21.8986 36.3751 21.8986C34.8545 21.9253 33.9208 22.8323 33.8941 24.3262C33.8941 25.8201 33.8675 27.2874 33.8941 28.7813C33.9208 30.2219 34.9079 31.1556 36.3485 31.1823C37.8157 31.1823 39.283 31.1823 40.7235 31.1823C42.1374 31.1823 43.1512 30.1952 43.1512 28.7547C43.1512 27.2607 43.1512 25.7935 43.1512 24.2995C43.1512 22.8856 42.1641 21.9253 40.7502 21.9253C40.4568 21.9253 40.1633 21.8986 39.8699 21.9253C39.5231 21.9786 39.4164 21.8185 39.3363 21.4984C38.4826 18.0837 35.9216 16.0829 32.4002 16.0829C29.359 16.0829 26.3178 16.0829 23.2766 16.0829C22.8764 16.0829 22.743 15.9762 22.7697 15.576C22.7964 14.669 22.823 13.7353 22.7697 12.8283C22.7697 12.3481 22.9298 12.2947 23.3299 12.2947C24.5838 12.2947 25.8376 12.2947 27.0647 12.2947C28.7454 12.2947 29.9192 11.0943 29.9192 9.41358C29.9192 7.49281 29.9192 5.59872 29.9192 3.67796C29.9192 2.02396 28.8521 0.82348 27.1981 0.796802C23.57 0.770125 19.9419 0.770125 16.3138 0.796802C14.6598 0.796802 13.566 1.99728 13.566 3.65128C13.566 5.54537 13.566 7.43946 13.566 9.33355C13.566 11.1209 14.7131 12.2947 16.5272 12.2947C17.781 12.2947 19.0349 12.2947 20.262 12.2947C20.6088 12.2947 20.7422 12.3481 20.7155 12.7483C20.6889 13.682 20.6889 14.6157 20.7155 15.5494C20.7155 16.0029 20.6088 16.0829 20.182 16.0829C17.0341 16.0829 13.9128 16.0829 10.7649 16.0829C7.85706 16.0829 5.32271 17.9503 4.36233 20.6714C4.22894 21.0716 4.30897 21.6318 3.96217 21.8452C3.64204 22.032 3.13517 21.8986 2.70833 21.8986C1.32111 21.9519 0.360728 22.8856 0.360728 24.2729C0.360728 25.7668 0.360728 27.2874 0.360728 28.7813C0.360728 30.1686 1.37447 31.1556 2.78837 31.1556C4.20226 31.1556 5.64284 31.1556 7.05674 31.1556C8.71073 31.1556 9.64444 30.2219 9.64444 28.5412C9.64444 27.3674 9.59109 26.1936 9.64444 25.0465C9.77783 22.939 8.71073 21.6852 6.57655 21.8986C6.57655 21.8986 6.54987 21.8986 6.52319 21.8986C6.20306 21.9519 6.12303 21.8185 6.20306 21.4984C6.65658 19.8444 8.31057 18.2971 10.0446 18.1904C13.486 17.9503 16.9274 18.1371 20.3954 18.0837C20.6889 18.0837 20.6889 18.2438 20.6889 18.4572C20.6889 19.2042 20.6889 19.9511 20.6889 20.6714C20.6889 21.4717 20.2887 21.8808 19.4884 21.8986C18.0745 21.9253 17.1141 22.8323 17.0607 24.2195C17.0074 25.7668 17.0341 27.2874 17.0607 28.8347C17.0607 30.0085 17.8877 30.9422 19.0082 31.1289C19.4083 31.1823 19.8352 31.1823 20.2353 31.1289C20.5821 31.1289 20.6889 31.209 20.6889 31.5825C20.6889 32.7563 20.6622 33.9301 20.6889 35.0772C20.6889 35.5574 20.5288 35.6374 20.102 35.6374C17.1141 35.6374 14.0996 35.6374 11.085 35.6374C7.80371 35.6374 5.16265 37.5048 4.2823 40.386C4.06888 41.0796 3.58869 41.4264 2.84172 41.4264C1.32111 41.4264 0.307373 42.4135 0.307373 43.9341C0.307373 45.348 0.307373 46.7885 0.307373 48.2024C0.307373 49.6964 1.24108 50.6834 2.73501 50.7101C4.20226 50.7368 5.6962 50.7101 7.19013 50.7101C8.6307 50.7101 9.56441 49.7764 9.61776 48.3358C9.64444 46.8152 9.64444 45.2946 9.61776 43.774C9.59109 42.5468 8.79077 41.6665 7.61696 41.4531C7.32351 41.3997 7.00338 41.3997 6.68326 41.4531C6.09636 41.5331 6.09636 41.293 6.25642 40.8395C6.95003 38.9721 8.68406 37.6916 10.6582 37.6916C14.313 37.6916 17.9944 37.6916 21.6492 37.6916C25.3307 37.6916 29.0122 37.6916 32.6937 37.6916C34.6144 37.6916 36.0283 38.6519 36.9087 40.3593C37.4689 41.4264 37.4422 41.4531 36.2684 41.4531C34.8545 41.4531 33.8675 42.3334 33.8141 43.7206C33.7608 45.2946 33.7608 46.8686 33.8141 48.4692C33.8675 49.8031 34.7745 50.6834 36.0817 50.7368C37.6557 50.7901 39.2296 50.7901 40.8036 50.7368C42.1374 50.6834 43.0445 49.6964 43.0711 48.3892C43.0711 46.8686 43.0711 45.348 43.0711 43.8274C43.0711 42.4668 42.0307 41.5064 40.6702 41.4797H40.8303ZM40.6969 23.9261C41.0437 23.9261 41.1771 24.0594 41.1771 24.4062C41.1771 25.8468 41.1771 27.2874 41.1771 28.728C41.1771 29.0481 41.0437 29.1815 40.7235 29.1815C39.3096 29.1815 37.8957 29.1815 36.4552 29.1815C36.0817 29.1815 35.9483 28.9948 35.975 28.6479C35.975 27.9543 35.975 27.2607 35.975 26.5404C35.975 25.8201 35.975 25.1532 35.975 24.4329C35.975 24.0594 36.1084 23.9261 36.4818 23.9261C37.8691 23.9261 39.283 23.9261 40.6702 23.9261H40.6969ZM7.19013 23.9261C7.56361 23.9261 7.72367 24.0328 7.72367 24.4329C7.72367 25.8468 7.72367 27.2607 7.72367 28.7013C7.72367 29.0481 7.56361 29.1815 7.24348 29.1815C5.82958 29.1815 4.41568 29.1815 2.97511 29.1815C2.6283 29.1815 2.49491 29.0214 2.52159 28.6746C2.52159 27.981 2.52159 27.2874 2.52159 26.5671C2.52159 25.8468 2.52159 25.1265 2.52159 24.4062C2.52159 24.0594 2.65498 23.9261 3.00178 23.9261C4.38901 23.9261 5.8029 23.9261 7.19013 23.9261ZM7.2168 43.5339C7.61696 43.5339 7.72367 43.694 7.697 44.0674C7.697 44.7611 7.697 45.428 7.697 46.1216C7.697 46.8419 7.697 47.5622 7.697 48.2825C7.697 48.6293 7.56361 48.7627 7.2168 48.7627C5.8029 48.7627 4.36233 48.7627 2.94843 48.7627C2.6283 48.7627 2.49491 48.6293 2.49491 48.3091C2.49491 46.8686 2.49491 45.428 2.49491 43.9874C2.49491 43.6673 2.6283 43.5339 2.94843 43.5339C4.36233 43.5339 5.8029 43.5339 7.2168 43.5339ZM16.6873 10.2939C15.8869 10.2939 15.7269 10.1339 15.7269 9.33355C15.7269 7.49281 15.7269 5.67876 15.7269 3.83802C15.7269 3.06438 15.9136 2.87763 16.6873 2.87763C20.1286 2.87763 23.57 2.87763 27.0381 2.87763C27.8117 2.87763 27.9985 3.06438 27.9985 3.83802C27.9985 5.67876 27.9985 7.49281 27.9985 9.33355C27.9985 10.1072 27.8117 10.2939 27.0381 10.2939C25.304 10.2939 23.57 10.2939 21.836 10.2939C20.102 10.2939 18.4213 10.2939 16.6873 10.2939ZM19.8085 29.1815C19.3817 29.1815 19.2216 29.0214 19.2483 28.5946C19.2483 27.9277 19.2483 27.234 19.2483 26.5404C19.2483 25.8468 19.2483 25.1532 19.2483 24.4329C19.2483 24.0594 19.355 23.8994 19.7552 23.8994C21.1424 23.8994 22.5563 23.8994 23.9435 23.8994C24.3437 23.8994 24.4504 24.0594 24.4504 24.4062C24.4504 25.7935 24.4504 27.2074 24.4504 28.5946C24.4504 29.0214 24.2636 29.1281 23.8901 29.1281C22.5296 29.1281 21.1691 29.1281 19.8085 29.1281V29.1815ZM41.1771 48.2558C41.1771 48.6026 41.0703 48.7627 40.6969 48.736C39.283 48.736 37.8424 48.736 36.4285 48.736C36.055 48.736 35.9483 48.6026 35.9483 48.2558C35.9483 47.5355 35.9483 46.8152 35.9483 46.0949C35.9483 45.3746 35.9483 44.681 35.9483 43.9874C35.9483 43.6673 36.055 43.5339 36.3751 43.5339C37.8157 43.5339 39.2563 43.5339 40.6969 43.5339C41.017 43.5339 41.1504 43.6673 41.1504 43.9874C41.1504 45.4013 41.1504 46.8419 41.1504 48.2558H41.1771Z" fill="#1F2430"></path>
</svg>
