<?xml version="1.0" encoding="UTF-8"?>
<svg xmlns="http://www.w3.org/2000/svg" width="65" height="51" viewBox="0 0 65 51" fill="none">
  <path fill-rule="evenodd" clip-rule="evenodd" d="M64.6689 8.36099C64.6348 3.93922 60.8253 0.299769 56.1655 0.435824C53.8765 0.503814 51.5724 0.4812 49.2632 0.458537C48.1068 0.447186 46.949 0.435824 45.7913 0.435824H34.8389C31.0634 0.435824 27.7981 3.1229 27.0158 6.83038C26.7396 8.16113 26.7785 9.49188 26.8178 10.8363V10.8363C26.8318 11.3131 26.8457 11.7917 26.8457 12.2726C26.8457 12.8508 26.7097 13.0209 26.1315 13.0209H9.12465C8.41037 13.0209 7.69608 13.0549 6.9818 13.1569C3.41037 13.5991 0.247102 17.0345 0.179075 20.6399C0.145061 24.9936 0.145061 29.3474 0.179075 33.7011C0.179075 37.3066 2.86615 40.5379 6.36955 41.3202C6.9818 41.4562 7.15186 41.6603 7.15186 42.2726C7.12919 43.8145 7.13675 45.3564 7.1443 46.8983V46.8984C7.14808 47.6694 7.15186 48.4404 7.15186 49.2113C7.15186 50.3338 8.03622 50.776 8.9886 50.2317C9.05661 50.1977 9.11612 50.1552 9.17562 50.1127L9.17567 50.1127C9.2352 50.0702 9.29472 50.0277 9.36275 49.9936C12.4485 48.0589 15.5166 46.1066 18.5925 44.1493C19.7886 43.3881 20.9859 42.6263 22.1859 41.8644C22.526 41.6263 22.9002 41.5583 23.3083 41.5583H29.6349C34.3968 41.4902 37.8661 38.1909 38.0022 33.497C38.0362 32.2726 38.0362 31.0141 38.0022 29.7556C38.0022 29.1433 38.0702 28.8712 38.7845 28.9392C39.6349 29.0073 40.5192 28.9732 41.4036 28.9392C41.9138 28.9392 42.2879 29.0753 42.7301 29.3134L55.5872 37.4766C56.0634 37.7828 56.5396 38.0549 57.0838 37.7147C57.628 37.3746 57.6961 36.8644 57.6961 36.2862V29.4154C57.6961 29.0073 57.7641 28.8372 58.2403 28.7351C61.7777 28.0209 64.4308 25.0277 64.6008 21.4562C64.7845 17.5386 64.7203 13.5935 64.656 9.6456C64.6488 9.20608 64.6417 8.76653 64.6349 8.32698L64.6689 8.36099ZM35.7233 33.2589C35.7233 36.3542 33.8185 38.5991 30.8253 39.1773C30.4512 39.2453 30.077 39.2453 29.7029 39.2453H23.0022C22.3559 39.2453 21.8117 39.4154 21.2675 39.7556L10.043 46.8984C9.87295 47.0004 9.70288 47.1025 9.43077 47.2726V40.844C9.43077 39.6535 9.09064 39.3134 7.90016 39.2453C5.00901 39.1093 2.492 36.5583 2.45799 33.6331C2.42397 29.3814 2.42397 25.1297 2.45799 20.878C2.45799 17.9868 4.94098 15.5039 7.83214 15.3338H8.58043C10.916 15.3338 13.2516 15.3376 15.5872 15.3413C20.2584 15.3489 24.9296 15.3565 29.6008 15.3338C33.0022 15.3338 35.1451 17.6467 35.6212 19.9596C35.6967 20.3119 35.7164 20.6641 35.7353 21.0025V21.0026C35.7419 21.1217 35.7484 21.2391 35.7573 21.3542V33.293L35.7233 33.2589ZM56.8457 26.6943C55.7233 26.7964 55.4172 27.1025 55.4172 28.259V34.6875C54.0565 33.8371 52.7479 33.004 51.4666 32.1883L51.4652 32.1875L51.463 32.1861C50.9519 31.8607 50.445 31.538 49.941 31.2181C48.8696 30.5379 47.7897 29.8577 46.7099 29.1774C45.6299 28.4971 44.5499 27.8168 43.4784 27.1365C43.0362 26.8644 42.628 26.6943 42.0838 26.7283C41.7312 26.7283 41.3824 26.7245 41.0349 26.7207L41.0345 26.7207C40.3429 26.7132 39.6563 26.7057 38.9546 26.7283C38.2403 26.7624 38.0022 26.6263 38.0022 25.844C38.0022 25.3006 38.0133 24.7571 38.0244 24.2129V24.2129C38.0521 22.8496 38.08 21.4813 37.9342 20.0957C37.526 16.6603 34.6689 13.6671 31.2335 13.1569C31.0804 13.1399 30.9189 13.1144 30.7573 13.0889C30.5957 13.0634 30.4342 13.0379 30.2811 13.0209C29.0906 12.9528 29.0906 12.9528 29.0906 11.7283C29.0906 11.3327 29.0776 10.9344 29.0645 10.535C29.0303 9.4922 28.9959 8.44152 29.1927 7.40861C29.7709 4.65351 32.0158 2.71474 34.8389 2.71474C42.0838 2.68072 49.3627 2.68072 56.6076 2.71474C59.8729 2.71474 62.3219 5.29977 62.3559 8.59909V20.7419C62.3559 24.0072 60.043 26.4222 56.8117 26.6943H56.8457ZM20.2131 20.0277C19.975 19.5515 19.6349 19.2113 19.0906 19.2453C18.5124 19.2453 18.2063 19.6195 17.9682 20.0957C16.8627 22.2726 15.7573 24.4579 14.6519 26.6433C13.5464 28.8287 12.441 31.0141 11.3355 33.1909C10.9274 34.0073 11.0634 34.6535 11.7437 34.9596C12.39 35.2658 12.9342 35.0277 13.3423 34.2113C13.4801 33.9428 13.6178 33.6756 13.7552 33.409C14.2966 32.3587 14.8337 31.3169 15.3491 30.2317C15.5192 29.8916 15.7233 29.7556 16.0974 29.7896H19.0906H22.0838C22.492 29.7896 22.7301 29.8916 22.9342 30.2998C23.5804 31.6263 24.2607 32.9528 24.941 34.2794C25.1451 34.6535 25.3832 34.9936 25.8593 35.0617C26.3015 35.1297 26.7097 34.9936 26.9818 34.6195C27.3219 34.1433 27.1859 33.7011 26.9818 33.2249C25.8594 31.0312 24.7455 28.8374 23.6316 26.6436C22.5176 24.4496 21.4036 22.2556 20.2811 20.0617L20.2131 20.0277ZM16.7777 27.4426C17.56 25.9121 18.3082 24.4156 19.0905 22.8511L19.0906 22.8508C19.873 24.4154 20.6213 25.878 21.4376 27.4426H16.7777ZM50.7573 12.5107C50.3151 12.4426 50.1451 12.6467 50.009 13.0209L50.077 12.9528C49.6008 14.1773 49.0226 15.3678 48.3083 16.4562C48.0702 16.8644 48.1383 17.0345 48.5124 17.2726C49.237 17.7414 49.9483 18.2236 50.6546 18.7025C51.0755 18.9879 51.4946 19.272 51.9138 19.5515C52.9002 20.2317 53.1383 20.776 52.6621 21.4562C52.2199 22.1025 51.6076 22.1025 50.6553 21.4562C50.3484 21.2517 50.0416 21.0497 49.7355 20.8481C48.9217 20.3123 48.1128 19.7798 47.3219 19.2113C46.8798 18.9052 46.6076 18.8712 46.2675 19.3474C45.5192 20.3338 44.6349 21.1841 43.7165 22.0345C43.0022 22.6807 42.39 22.7487 41.8798 22.2045C41.4036 21.6943 41.4716 21.0141 42.1519 20.4018C42.7386 19.8916 43.2679 19.324 43.7973 18.7564C43.9737 18.5672 44.1502 18.378 44.3287 18.1909C44.7369 17.7828 44.8389 17.5107 44.2267 17.1705C43.7845 16.9145 43.3581 16.6107 42.926 16.3027C42.7266 16.1606 42.526 16.0176 42.3219 15.878C41.5396 15.3678 41.3695 14.7215 41.7777 14.1433C42.1859 13.5991 42.8321 13.5311 43.5464 14.0073C43.9206 14.2624 44.2862 14.509 44.6519 14.7556C45.0175 15.0021 45.3832 15.2487 45.7573 15.5038C45.9954 15.6739 46.1655 15.7419 46.3355 15.4358C46.8457 14.5175 47.3559 13.5651 47.7981 12.5107H41.0974H40.1451C39.2947 12.5107 38.7505 12.0685 38.7505 11.3882C38.7505 10.7079 39.2607 10.2317 40.111 10.2317H44.3627C44.8389 10.2658 45.009 10.1297 44.975 9.6195C44.9524 9.25789 44.9598 8.88126 44.9674 8.49959C44.9712 8.30686 44.975 8.11284 44.975 7.91882C45.009 7.27256 45.4172 6.79637 46.0294 6.79637C46.6417 6.76235 47.1519 7.23854 47.1859 7.8848C47.2199 8.39501 47.2539 8.93923 47.1859 9.44943C47.0838 10.1297 47.39 10.2317 48.0022 10.2317C48.7719 10.2091 49.5266 10.2166 50.2862 10.2241C50.6679 10.2279 51.0508 10.2317 51.4376 10.2317C52.3219 10.2317 52.8321 10.6739 52.8321 11.3882C52.8321 12.0685 52.2879 12.5107 51.4376 12.5107C51.3569 12.5107 51.2762 12.5146 51.1969 12.5184C51.0421 12.5259 50.8922 12.5331 50.7573 12.5107Z" fill="#1F2430"></path>
</svg>
