<?xml version="1.0" encoding="UTF-8"?>
<svg xmlns="http://www.w3.org/2000/svg" width="50" height="51" viewBox="0 0 50 51" fill="none">
  <path fill-rule="evenodd" clip-rule="evenodd" d="M28.9363 3.13617L28.9361 3.136C28.2409 2.42386 27.5448 1.71085 26.8427 1.00092C25.9255 0.0641478 24.8118 0.0641478 23.8946 1.00092C22.8131 2.0944 21.7388 3.19533 20.667 4.29377L20.667 4.29382L20.6668 4.29402C20.1318 4.84227 19.5974 5.3899 19.0631 5.93568C18.9484 6.05277 18.8502 6.16987 18.7519 6.30369C18.0476 7.29065 18.6045 8.67907 19.7673 8.92999C20.0949 8.9969 20.4388 9.03036 20.7664 8.98017C21.2414 8.92999 21.3888 9.06381 21.3888 9.59911C21.3779 13.9812 21.3815 18.3559 21.3851 22.7331L21.3851 22.7381C21.387 24.9259 21.3888 27.1144 21.3888 29.3047V49.0103V49.4452C21.4379 50.0307 21.6836 50.2816 22.2732 50.2816H28.4969C29.0701 50.2816 29.3321 50.0307 29.3649 49.4285V48.9434V9.49874C29.3649 9.09727 29.4468 8.96345 29.8562 8.9969C30.3312 9.04709 30.8225 9.04709 31.2648 8.86308C32.2802 8.46161 32.7552 6.98954 31.7233 5.96913C30.7877 5.03261 29.8628 4.08517 28.9363 3.13617ZM30.4131 7.49138H28.9227C28.1202 7.49138 27.8745 7.75903 27.8745 8.5787V18.398V28.4683V48.3077C27.8745 48.6925 27.809 48.8263 27.3995 48.8263C26.0401 48.7928 24.6808 48.7928 23.3378 48.8263C22.9447 48.8263 22.8464 48.7259 22.8464 48.3244V8.77944V8.52852C22.8464 7.7423 22.5844 7.49138 21.7982 7.47465H20.2587C20.2362 7.47465 20.2122 7.47614 20.1876 7.47766C20.0691 7.48499 19.9362 7.49321 19.882 7.34083C19.8262 7.19828 19.925 7.10432 20.0162 7.01754L20.0162 7.01751C20.032 7.00247 20.0476 6.98764 20.0621 6.97281C20.8647 6.14475 21.6713 5.32087 22.478 4.49699C23.2846 3.67316 24.0912 2.84933 24.8937 2.02132C25.2049 1.70349 25.4669 1.68676 25.7781 2.02132C26.5806 2.84936 27.3872 3.67321 28.1939 4.49706L28.195 4.49821C29.0012 5.32168 29.8075 6.14516 30.6096 6.97281C30.6242 6.98765 30.6398 7.00249 30.6556 7.01754C30.7468 7.10432 30.8456 7.19828 30.7898 7.34083C30.7372 7.50211 30.5999 7.49062 30.4716 7.47987C30.4402 7.47724 30.4093 7.47465 30.3803 7.47465L30.4131 7.49138ZM48.0523 20.7734C45.612 20.7567 43.1716 20.7567 40.7313 20.7734C40.0434 20.7734 39.5193 21.1414 39.2409 21.8106C38.9788 22.4462 39.0771 23.0484 39.5193 23.5837C39.7322 23.8346 39.9451 24.0688 40.1908 24.2863C40.4529 24.5205 40.4856 24.6543 40.2072 24.9387C39.2114 25.9424 38.2234 26.9541 37.236 27.9653L37.2359 27.9655C35.7548 29.4822 34.275 30.9976 32.7715 32.483C31.6087 33.6205 31.1174 34.942 31.1174 36.5647C31.1392 39.3421 31.1319 42.127 31.1246 44.9094C31.121 46.2997 31.1174 47.6894 31.1174 49.0772V49.5623C31.1829 50.0474 31.4449 50.2816 31.9199 50.2816H38.291C38.7495 50.2816 38.9952 50.0474 39.0771 49.5958C39.1099 49.4285 39.1099 49.2445 39.1099 49.0605V39.3248C39.1099 38.7727 39.2573 38.3211 39.634 37.9196C39.9076 37.6275 40.1717 37.316 40.4336 37.0073L40.4343 37.0064C40.5171 36.9089 40.5996 36.8116 40.6822 36.7152C41.3537 35.9457 42.0088 35.1762 42.6639 34.4067C42.9096 34.1224 42.9587 33.8045 42.7458 33.47C42.5493 33.1689 42.2545 33.102 41.9433 33.1856C41.7519 33.2275 41.6289 33.3743 41.5078 33.519C41.4838 33.5476 41.4599 33.5762 41.4356 33.6038C41.1617 33.922 40.8893 34.2417 40.617 34.5611L40.6161 34.5622L40.616 34.5623C39.944 35.3506 39.2732 36.1376 38.5858 36.8992C37.9143 37.6352 37.6358 38.4716 37.6358 39.4753C37.6468 41.4383 37.6431 43.4087 37.6395 45.3766V45.3778C37.6376 46.3611 37.6358 47.3437 37.6358 48.3244C37.6358 48.7092 37.5703 48.843 37.1609 48.843C35.8015 48.8095 34.4421 48.8095 33.0991 48.843C32.706 48.843 32.5914 48.7594 32.6078 48.3412L32.6078 48.3245C32.6242 44.2819 32.6405 40.256 32.6078 36.2134C32.6078 35.193 32.9353 34.4067 33.6396 33.7042C36.3911 30.9273 39.1099 28.1337 41.8286 25.3402C42.3855 24.7714 42.3855 24.4368 41.8286 23.8514L40.7477 22.7473C40.7368 22.7363 40.7256 22.7252 40.7143 22.714C40.6229 22.624 40.5256 22.5281 40.5839 22.3793C40.64 22.2359 40.7684 22.24 40.8967 22.2441C40.9181 22.2448 40.9395 22.2455 40.9606 22.2455H47.8066C48.2325 22.2455 48.4454 22.4462 48.4454 22.8979V29.8902C48.4454 29.9117 48.446 29.9335 48.4467 29.9554C48.4507 30.0865 48.4547 30.2176 48.3143 30.2749C48.1573 30.3551 48.0735 30.2538 47.9877 30.1501C47.9661 30.124 47.9443 30.0977 47.9213 30.0742C47.8186 29.9694 47.7171 29.8646 47.6157 29.76L47.6157 29.7599C47.3127 29.4474 47.012 29.1371 46.6929 28.8363C46.2998 28.4683 45.9068 28.4516 45.5628 28.8363C44.8586 29.6225 44.1707 30.4087 43.5156 31.2117C43.2535 31.5295 43.2863 31.9644 43.5647 32.2321C43.8595 32.5165 44.269 32.4997 44.5801 32.1819C44.7472 32.0213 44.8966 31.8427 45.0459 31.664L45.046 31.6639C45.1455 31.5449 45.2451 31.4258 45.3499 31.3121C45.5257 31.1101 45.7088 30.9156 45.8944 30.7186L45.8946 30.7184L45.8948 30.7182C45.9858 30.6216 46.0773 30.5244 46.1688 30.4255C46.4472 30.6931 46.7257 30.9608 46.9877 31.2284C47.7902 31.9979 48.8384 31.9644 49.5099 31.128C49.6281 30.9805 49.7147 30.8114 49.8035 30.6381C49.8255 30.5953 49.8475 30.5522 49.8703 30.5091V22.1953C49.5099 21.3924 48.9858 20.7567 48.0359 20.74L48.0523 20.7734ZM13.2009 18.1446C13.6541 18.6093 14.1066 19.0733 14.5591 19.5355C14.9625 19.9475 15.3659 20.3632 15.7699 20.7796C16.5797 21.6141 17.3919 22.4512 18.2114 23.2659C19.1614 24.2194 19.5872 25.3402 19.5872 26.6784V49.1608C19.5872 50.0809 19.3743 50.2983 18.5062 50.2983H12.5774C11.8731 50.2983 11.6111 50.0474 11.6111 49.3448V38.4382C11.6274 37.8192 11.8895 37.4847 12.3481 37.4847C12.823 37.4847 13.1015 37.836 13.1015 38.4716C13.1015 39.5577 13.1033 40.6457 13.1051 41.7348C13.1087 43.9169 13.1124 46.1039 13.1015 48.291C13.1015 48.7594 13.2489 48.8263 13.6583 48.8263C14.9849 48.7928 16.3116 48.7928 17.6382 48.8263C18.0313 48.8263 18.1623 48.7594 18.1623 48.3077V37.2505C18.1623 36.0802 18.1587 34.908 18.155 33.7351C18.1477 31.3876 18.1404 29.0377 18.1623 26.6951C18.1623 25.6914 17.8347 24.922 17.1469 24.2194C15.3235 22.3794 13.5147 20.5245 11.7058 18.6696C10.8014 17.742 9.89687 16.8145 8.99057 15.8888C8.3682 15.2364 8.35182 14.9521 8.99057 14.2997L10.0388 13.2291C10.049 13.2186 10.0597 13.2081 10.0704 13.1975C10.1621 13.107 10.2595 13.0109 10.1862 12.8611C10.137 12.7272 9.98963 12.7272 9.8586 12.7272H2.96343C2.52122 12.7272 2.32469 12.9447 2.32469 13.3964V20.3887C2.32469 20.4012 2.32457 20.4138 2.32446 20.4264C2.32321 20.5663 2.3219 20.7121 2.47209 20.7734C2.61166 20.8304 2.70366 20.7295 2.78862 20.6363C2.80336 20.6202 2.81788 20.6042 2.83241 20.5894C2.96343 20.4556 3.09263 20.3218 3.22184 20.1879C3.48025 19.9203 3.73866 19.6526 4.01163 19.385C4.47021 18.9501 4.81415 18.9333 5.25636 19.385C6.82928 20.9804 8.39492 22.5832 9.95813 24.1835C10.7388 24.9827 11.5189 25.7813 12.2989 26.578C12.8722 27.1635 13.1342 27.8995 13.1342 28.7025V35.0591C13.1342 35.4773 13.036 35.8453 12.5937 35.9792C12.2498 36.0963 11.955 35.9624 11.7748 35.6446C11.6438 35.4271 11.6438 35.193 11.6438 34.942C11.6438 34.2741 11.642 33.6044 11.6402 32.9334C11.6365 31.5878 11.6329 30.2371 11.6438 28.8865C11.6438 28.2843 11.4473 27.8326 11.0378 27.4144C8.99057 25.3569 6.95968 23.2826 4.94518 21.1916C4.66675 20.9072 4.51935 20.9407 4.29006 21.2083C4.04438 21.4927 3.76596 21.7604 3.45477 21.9946C2.94705 22.3793 2.3902 22.396 1.83334 22.1284C1.26011 21.8607 0.883414 21.3924 0.883414 20.7232C0.867036 18.1638 0.850658 15.6045 0.883414 13.0451C0.899792 12.1083 1.75145 11.2886 2.685 11.2886C4.31189 11.2775 5.93878 11.2812 7.56567 11.2849C8.37912 11.2868 9.19256 11.2886 10.006 11.2886C10.6775 11.2886 11.1852 11.6232 11.48 12.2589C11.7585 12.8778 11.7093 13.4967 11.2671 14.032C11.0214 14.3331 10.743 14.6008 10.4646 14.8684C10.2681 15.0524 10.2681 15.1528 10.4646 15.3535C11.3824 16.2798 12.2929 17.2134 13.2009 18.1446Z" fill="#1F2430"></path>
</svg>
