<?xml version="1.0" encoding="UTF-8"?>
<svg xmlns="http://www.w3.org/2000/svg" width="51" height="51" viewBox="0 0 51 51" fill="none">
  <path fill-rule="evenodd" clip-rule="evenodd" d="M23.1748 13.013C22.9828 13.0105 22.7899 13.008 22.5946 13.008L22.617 12.9631C21.8764 12.9855 21.3601 12.6488 21.0459 11.998C20.7317 11.3471 20.8439 10.7187 21.3153 10.18C21.9842 9.40252 22.6824 8.65418 23.3861 7.89977L23.3864 7.89953C23.5561 7.71754 23.7262 7.53521 23.8963 7.35202C25.6694 5.42183 27.465 3.46918 29.2605 1.53898C30.2031 0.528997 31.258 0.528997 32.1782 1.53898C34.7817 4.36695 37.3853 7.19492 39.9888 10.0004C40.5275 10.584 40.7295 11.2349 40.4152 11.9755C40.101 12.7162 39.4726 13.008 38.6646 12.9855C38.4867 12.9855 38.3063 12.988 38.1243 12.9904H38.1242C37.7552 12.9954 37.3795 13.0005 37.0037 12.9855C36.6895 12.9855 36.5997 13.0528 36.5997 13.3895V19.5392V25.442C36.5997 26.6091 35.9488 27.2824 34.7817 27.2824H26.657C25.4899 27.2824 24.8165 26.6091 24.8165 25.4196V13.5242C24.8165 13.1202 24.7492 12.9855 24.3228 13.008C23.9346 13.0229 23.5563 13.018 23.1748 13.013ZM26.6459 6.90297C25.3834 8.27212 24.1208 9.64127 22.8639 11.0104L22.8415 10.988C22.82 11.0095 22.7946 11.0284 22.7694 11.0472C22.6893 11.107 22.6107 11.1656 22.6619 11.3022H25.3328C26.2754 11.3022 26.5223 11.5715 26.5223 12.5142V25.1054C26.5223 25.4869 26.5896 25.5991 26.9936 25.5991H34.3778C34.7818 25.5991 34.9164 25.5318 34.9164 25.0829V12.4469C34.9164 11.5715 35.1633 11.3246 36.0162 11.3246H38.8666C37.1519 9.45275 35.4645 7.62635 33.787 5.81068L33.7868 5.81048L33.7866 5.81029L33.785 5.80852L33.7772 5.80014C32.8231 4.76747 31.8722 3.73825 30.9214 2.70608C30.7007 2.467 30.6005 2.58959 30.4975 2.71575L30.4975 2.71577C30.4748 2.74357 30.4519 2.77154 30.4276 2.79586C29.1708 4.16489 27.9083 5.53393 26.6459 6.90297ZM46.5649 32.9384C48.5176 32.2875 50.3356 33.275 50.8069 35.2277H50.7844C51.0987 36.5294 50.4702 37.8761 49.1685 38.6616L42.4352 42.7689L33.8167 48.0209C32.6047 48.7615 31.3253 49.1206 29.9114 49.1206H10.0483C9.71161 49.1206 9.55451 49.2104 9.37495 49.5022C8.92607 50.3102 8.18541 50.7815 7.22031 50.7815H3.13547C1.83371 50.7815 1.00328 50.1755 0.576837 48.9186C0.554393 48.8737 0.487061 48.8064 0.487061 48.8064V29.2351C0.846167 28.2924 1.40727 27.5518 2.46215 27.3273C2.6417 27.26 2.8437 27.26 3.0457 27.26H7.17542C8.18541 27.2824 8.94851 27.7313 9.41984 28.6067C9.57695 28.876 9.73406 28.9433 10.0258 28.9433C11.4847 28.8984 12.9211 28.9658 14.3127 29.5269C15.0533 29.8186 15.7715 30.2002 16.4 30.694C17.814 31.8162 19.4075 32.3548 21.2255 32.3099C22.1389 32.295 23.0624 32.3 23.9825 32.305H23.9827H23.9828H23.9832H23.9836C24.4422 32.3075 24.8999 32.3099 25.3552 32.3099C27.5323 32.3324 29.5298 33.9259 30.046 36.0132C30.2031 36.6192 30.1807 37.1803 29.9563 38.1679C30.4949 38.2801 30.9887 38.123 31.4825 37.9659C36.51 36.305 41.5374 34.6217 46.5649 32.9384ZM6.97343 49.1206C7.73653 49.1206 8.05075 48.8064 8.05075 48.0433V30.0431C8.05075 29.28 7.73653 28.9658 6.97343 28.9658H3.33747C2.4397 28.9882 2.17037 29.2575 2.17037 30.1553V39.0432V48.0433C2.17037 48.8064 2.48459 49.1206 3.24769 49.1206H6.97343ZM43.3105 40.2552C45.0163 39.2452 46.6996 38.2128 48.3829 37.1803C49.0562 36.7763 49.3256 36.1928 49.146 35.5419C48.8767 34.5992 48.0687 34.2177 46.9465 34.5992C46.1184 34.874 45.291 35.148 44.4642 35.4218L44.4137 35.4385L44.3947 35.4448L44.3947 35.4448L44.3946 35.4448C40.5836 36.7068 36.7849 37.9647 32.9862 39.2676C31.7293 39.7165 30.45 39.941 29.1034 39.8961C27.7875 39.8662 26.4816 39.8761 25.1723 39.8861H25.1718H25.1713C24.5158 39.8911 23.8594 39.8961 23.2006 39.8961C22.6619 39.8736 22.1457 39.941 21.6295 40.0307C20.5073 40.2327 19.5422 40.7714 18.622 41.3998C18.1955 41.7141 17.6793 41.6018 17.41 41.2203C17.1406 40.8387 17.208 40.345 17.612 40.0532C19.1606 38.9085 20.8664 38.2128 22.7966 38.2128C23.3133 38.2128 23.8275 38.2078 24.3408 38.2028L24.3419 38.2028C25.3668 38.1928 26.3885 38.1829 27.4201 38.2128C28.0036 38.2352 28.2505 38.0108 28.3627 37.4945C28.3696 37.4533 28.3786 37.4099 28.3878 37.3656C28.4085 37.2656 28.4301 37.1615 28.4301 37.0681C28.4974 35.6092 27.1732 34.1728 25.6245 34.0606C24.499 33.979 23.3853 33.9923 22.2663 34.0057C21.8456 34.0107 21.4241 34.0157 21.001 34.0157C19.1382 34.0157 17.3875 33.5893 15.9062 32.4222C14.2229 31.098 12.36 30.5368 10.2503 30.6266C9.84628 30.6266 9.73406 30.694 9.73406 31.1204V46.966C9.73406 47.37 9.84628 47.4373 10.2278 47.4373H20.1706C21.2012 47.4373 22.2343 47.4348 23.2691 47.4323H23.2693H23.2696H23.2705C25.345 47.4273 27.4262 47.4223 29.5074 47.4373C30.8765 47.4373 32.1109 47.1007 33.3004 46.36C35.4371 45.0318 37.5831 43.7314 39.7324 42.4291C40.9244 41.7068 42.1175 40.9838 43.3105 40.2552ZM40.4601 20.5043C40.7295 20.6165 40.7968 20.7512 40.7743 20.9981V23.2201V25.5318C40.7968 26.6316 41.4701 27.2824 42.5699 27.3049C42.9963 27.3049 43.4228 27.2999 43.8492 27.2949C44.7021 27.2849 45.555 27.275 46.4078 27.3049C47.5749 27.3498 48.4054 26.5642 48.3829 25.3298C48.353 24.3714 48.363 23.4029 48.373 22.4378V22.4375C48.3779 21.9563 48.3829 21.476 48.3829 20.9981C48.3829 20.7512 48.4278 20.5941 48.6971 20.5043C49.8418 20.0554 50.2009 18.7537 49.3929 17.811C48.2258 16.4868 47.0363 15.2075 45.8243 13.9506C45.1061 13.21 44.0288 13.2324 43.333 13.9731C42.1434 15.2299 40.9763 16.4868 39.8317 17.7661C38.9788 18.7088 39.3155 20.033 40.4826 20.4819L40.4601 20.5043ZM44.4103 15.2748C44.5225 15.1402 44.6123 15.1402 44.7245 15.2748C45.8243 16.4644 46.924 17.6539 48.0014 18.821C47.9466 18.9306 47.862 18.9213 47.7962 18.914C47.7854 18.9128 47.7752 18.9117 47.7657 18.9111C47.7618 18.9109 47.7581 18.9108 47.7545 18.9108C46.9016 18.9108 46.6323 19.2025 46.6323 20.0779V25.1503C46.6323 25.5542 46.5201 25.6216 46.1385 25.6216C45.0836 25.5991 44.0063 25.5991 42.9514 25.6216C42.525 25.6216 42.4577 25.4869 42.4577 25.1054C42.4726 24.0291 42.4676 22.9628 42.4627 21.8931V21.8925C42.4602 21.3564 42.4577 20.8194 42.4577 20.2799C42.4577 19.1352 42.2781 18.9332 41.0212 18.9108C42.1883 17.6539 43.2881 16.4644 44.3654 15.2748H44.4103ZM13.0782 20.9307C13.1007 20.7287 13.0334 20.6165 12.8089 20.5268L12.8314 20.5043C11.552 20.0105 11.2378 18.7088 12.158 17.6988C13.2802 16.4644 14.4024 15.2524 15.5247 14.0404C16.3326 13.1875 17.3875 13.1651 18.1955 14.0179C18.4867 14.3319 18.7792 14.6459 19.0722 14.9602C19.931 15.8818 20.7927 16.8065 21.6295 17.7437C22.4823 18.7088 22.1681 20.033 20.9561 20.5043C20.7317 20.5941 20.6644 20.7063 20.6644 20.9532V25.4869C20.6419 26.5642 19.9686 27.2824 18.8913 27.2824H14.8064C13.774 27.2824 13.0782 26.5867 13.0782 25.5542V23.3323V20.9307ZM17.0509 15.3197C16.8713 15.0953 16.7815 15.185 16.6469 15.3421V15.3646L16.646 15.3655C15.569 16.5323 14.4919 17.6991 13.37 18.9108C14.6718 19.0005 14.7616 19.1128 14.7616 20.3696V25.24C14.7616 25.5767 14.8513 25.644 15.1655 25.644H18.5546C18.8688 25.644 18.9586 25.5767 18.9586 25.24V20.2799C18.9586 19.1352 19.0933 18.9781 20.2379 18.9332C20.2529 18.9332 20.2679 18.9133 20.2828 18.8933C20.2903 18.8833 20.2978 18.8734 20.3053 18.8659C19.7666 18.2711 19.2223 17.682 18.6781 17.0928C18.1338 16.5036 17.5895 15.9145 17.0509 15.3197Z" fill="#1F2430"></path>
</svg>
