<?xml version="1.0" encoding="UTF-8"?>
<svg xmlns="http://www.w3.org/2000/svg" width="60" height="51" viewBox="0 0 60 51" fill="none">
  <path fill-rule="evenodd" clip-rule="evenodd" d="M10.6992 12.1329C11.3548 12.1899 11.6684 11.7908 11.7254 10.8216C11.8394 9.05422 12.3525 7.40086 13.4073 5.94704C15.2032 3.4955 17.6547 2.24123 20.6764 2.0987C21.3605 2.07019 21.7311 1.69961 21.7311 1.12949C21.7311 0.55936 21.3035 0.217285 20.6193 0.217285C20.1632 0.217285 19.7071 0.274298 19.251 0.33131C14.1484 0.958448 9.901 5.60497 9.81548 10.7361C9.81548 11.6483 10.072 12.0759 10.6992 12.1329ZM58.0065 14.6952C55.1202 14.1654 53.6011 13.9773 52.115 13.7934C50.5629 13.6012 49.0469 13.4135 46.0469 12.8456C42.0137 12.0902 37.9733 11.342 33.933 10.5938L33.9316 10.5936C29.8909 9.84528 25.8502 9.097 21.8166 8.3416C20.0492 7.99952 18.5384 8.99724 18.2248 10.7361C17.7402 13.3302 17.2556 15.9243 16.7995 18.5183C16.5144 20.0862 17.2841 21.369 18.7949 21.8821C19.137 21.9961 19.2795 22.1386 19.1085 22.4807C19.0742 22.5493 19.0709 22.6385 19.0674 22.7297C19.0652 22.7902 19.0629 22.8515 19.0515 22.9083C18.7094 24.6757 19.7071 26.158 21.4745 26.5001C21.5858 26.5203 21.6934 26.5441 21.8 26.5677L21.8 26.5677L21.8001 26.5677C21.994 26.6106 22.1844 26.6527 22.3867 26.6711C22.7288 26.6996 22.8713 26.8136 22.8713 27.2127C22.8523 27.899 22.8587 28.5852 22.8651 29.2629V29.2631V29.2633C22.8682 29.5989 22.8713 29.9325 22.8713 30.2629C22.8713 30.491 22.8143 30.6905 22.6718 30.89C21.7881 32.1158 21.6171 33.4271 22.2442 34.8239C22.4152 35.223 22.3582 35.3085 21.9306 35.3085H7.2499C6.93633 35.3085 6.7653 35.3085 6.70828 34.8524C6.59426 33.5411 5.53953 32.5149 4.22824 32.3439C3.43566 32.2306 2.67118 32.2579 1.879 32.2863H1.87896L1.86222 32.2868C1.17807 32.2868 0.864502 32.6574 0.864502 33.3701V49.1625C0.864502 49.8467 1.20658 50.1888 1.89073 50.2173H3.82915C5.45401 50.2173 6.70828 48.9345 6.73679 47.3382C6.73679 46.9686 6.74309 46.596 6.7494 46.2222V46.2222C6.76209 45.4715 6.77485 44.7166 6.73679 43.9744C6.70828 43.3188 6.93633 43.2047 7.53496 43.2332H21.8451C24.0116 43.2332 25.893 41.8649 26.5771 39.8125C26.8052 39.0998 26.8622 38.3587 26.8337 37.589C26.8337 37.2754 26.8907 37.1044 27.2328 36.9619C29.7413 35.9927 30.568 33.1705 29.0572 30.9471C28.9146 30.719 28.8291 30.5195 28.8291 30.2629V28.3245C28.8291 27.9824 28.8291 27.8684 29.2567 27.9539C31.7368 28.4385 34.2168 28.8946 36.7254 29.3507C40.0749 29.9778 41.9886 30.2407 43.9024 30.5036C45.8162 30.7664 47.73 31.0293 51.0795 31.6565C52.7328 31.97 54.3007 30.9723 54.6143 29.2904C55.1559 26.5538 55.669 23.7887 56.1251 21.0236C56.3246 19.7979 56.6667 18.6576 57.6359 17.7739C58.0013 17.4451 58.3081 17.0695 58.6164 16.692C58.7892 16.4804 58.9624 16.2683 59.1468 16.0635V15.3224C58.8617 14.9803 58.5196 14.7808 58.0635 14.6952H58.0065ZM4.79836 46.8535C4.79836 48.0793 4.0572 48.6209 2.88845 48.3359C2.62295 48.2695 2.64937 48.1173 2.67451 47.9725C2.68176 47.9307 2.6889 47.8895 2.6889 47.8513V41.2948V34.7384C2.6889 34.3108 2.77442 34.1683 3.23052 34.1968C4.54181 34.1968 4.82687 34.4818 4.82687 35.7931V46.825L4.79836 46.8535ZM11.9781 41.3392H11.9777C10.4225 41.3455 8.86631 41.3518 7.30691 41.3518C6.7653 41.3518 6.65127 41.2093 6.67978 40.6962C6.70828 39.727 6.70828 38.7293 6.67978 37.76C6.67978 37.3325 6.7938 37.2184 7.2214 37.2184H15.7733H24.2111C24.6672 37.2184 24.8098 37.3039 24.8383 37.8171C24.9808 39.955 23.47 41.3803 21.3035 41.3518C18.188 41.3138 15.0851 41.3265 11.9781 41.3392ZM25.8075 35.3085C24.6672 35.3085 23.755 34.4248 23.755 33.2561C23.755 32.0873 24.6387 31.2036 25.8075 31.2321C26.9762 31.2321 27.8314 32.1158 27.8314 33.2846C27.8314 34.4248 26.9477 35.3085 25.8075 35.3085ZM24.7242 28.8091V28.239C24.7242 27.4978 25.0758 27.1937 25.779 27.3268C26.4821 27.4598 26.8242 27.8779 26.8052 28.581V28.8376C26.8622 29.2937 26.7482 29.5217 26.2351 29.3507C25.9215 29.2652 25.6079 29.2652 25.3229 29.3507C24.8098 29.4932 24.6387 29.2937 24.7242 28.8091ZM51.336 22.1354C51.2027 22.2887 51.0694 22.4404 50.9368 22.5914C50.5024 23.0859 50.0758 23.5715 49.6827 24.0738C48.9985 24.929 48.1433 25.1285 47.1171 24.929C44.0017 24.3431 42.3225 24.1233 40.6358 23.9026L40.6358 23.9026C38.9581 23.6831 37.273 23.4626 34.1598 22.8798L27.7459 21.6825C27.6034 21.6825 27.4609 21.654 27.3183 21.6255L27.3183 21.6255C26.6912 21.6255 26.3206 21.8821 26.2636 22.4237C26.2066 22.9368 26.5201 23.3929 27.0903 23.5069C28.3303 23.735 29.5632 23.963 30.7961 24.1911C32.029 24.4191 33.2619 24.6472 34.5019 24.8752C36.4688 25.2458 38.4358 25.6093 40.4027 25.9727L40.4043 25.973C42.3707 26.3364 44.3371 26.6997 46.3035 27.0702C47.4478 27.1823 48.2073 27.1619 48.5388 27.0702C49.34 26.8486 49.8537 26.6679 50.7374 25.7272C51.3189 25.1114 51.8696 24.4649 52.4204 23.8184L52.4204 23.8184C52.7876 23.3874 53.1547 22.9563 53.531 22.5345C53.5964 22.4527 53.6711 22.371 53.7606 22.2732C53.8272 22.2004 53.902 22.1186 53.9871 22.0213C53.778 23.1643 53.569 24.2663 53.3632 25.3508L53.3632 25.3512C53.1481 26.4845 52.9368 27.5987 52.7328 28.7203C52.5618 29.604 52.1342 29.8891 51.2505 29.7465C47.7157 29.0909 45.6167 28.7995 43.5176 28.5081C41.4185 28.2168 39.3194 27.9254 35.7847 27.2697C31.1666 26.4146 26.5771 25.5594 21.9591 24.6757C20.9329 24.4761 20.5053 23.3644 21.0754 22.5092C21.1722 22.3882 21.2485 22.411 21.3391 22.4381C21.3552 22.4429 21.3718 22.4479 21.389 22.4522C21.9021 22.5377 22.4152 22.6517 22.9283 22.7658C23.584 22.8798 24.0971 22.5947 24.2111 22.0816C24.3537 21.483 24.0116 21.0554 23.3274 20.9129C22.7288 20.7846 22.1302 20.6706 21.5315 20.5565L21.5315 20.5565C20.9329 20.4425 20.3343 20.3285 19.7356 20.2002C18.8519 20.0292 18.5954 19.6301 18.7379 18.7179C18.947 17.4636 19.1813 16.2094 19.4157 14.9552L19.4157 14.9551C19.5329 14.328 19.6501 13.7008 19.7641 13.0736C19.8212 12.7743 19.8782 12.4821 19.9352 12.19L19.9352 12.1898C19.9922 11.8977 20.0492 11.6055 20.1062 11.3062C20.2488 10.4511 20.6763 10.109 21.5315 10.28C25.0662 10.9071 28.6009 11.5628 32.1356 12.2184L32.1359 12.2184L45.9044 14.784C47.96 15.1642 48.6216 15.1958 49.2662 15.2266C49.9268 15.2583 50.5695 15.289 52.6758 15.693C52.9822 15.75 53.2869 15.807 53.5915 15.864C54.5055 16.035 55.4195 16.2061 56.3816 16.3771C55.4212 17.4817 54.4876 18.5682 53.5609 19.6469L53.5601 19.6478C52.8368 20.4897 52.1177 21.3268 51.3931 22.1639L51.336 22.1354ZM13.8348 10.9357C13.9203 7.40091 17.0275 4.32223 20.5338 4.26522L20.5623 4.29373C21.3034 4.26522 21.731 4.6073 21.7596 5.17742C21.7881 5.77605 21.4175 6.14663 20.6763 6.17514C17.9397 6.31767 15.8588 8.42713 15.7447 11.0782C15.7162 11.8764 15.3171 12.2185 14.69 12.1615C14.0914 12.1044 13.8348 11.6768 13.8348 10.9357Z" fill="#1F2430"></path>
</svg>
