<?xml version="1.0" encoding="UTF-8"?>
<svg xmlns="http://www.w3.org/2000/svg" width="38" height="50" viewBox="0 0 38 50" fill="none">
  <path fill-rule="evenodd" clip-rule="evenodd" d="M23.485 1.10335C20.6319 0.453488 17.8201 0.481791 14.9752 1.16314C14.6577 1.24299 14.3961 1.34167 14.2458 1.66466C14.0954 1.98764 14.0944 2.29866 14.3113 2.57928C14.6085 2.99078 15.0192 2.94233 15.4425 2.85661C19.6506 1.88727 23.6611 2.42887 27.4613 4.5187C35.7325 9.04885 38.5342 19.8939 33.4949 27.8897C31.2316 31.4654 28.0826 33.8502 24.0477 35.1063C22.4288 35.5987 21.1692 36.5651 20.3122 38.0614C20.162 38.3222 20.0127 38.3342 19.7704 38.2525L17.4216 37.4612C16.8623 37.2728 16.3639 37.52 16.2193 38.011C16.0623 38.477 16.347 38.9258 16.8876 39.1079C17.1361 39.1917 17.384 39.2775 17.6318 39.3633C18.1275 39.5349 18.6232 39.7065 19.1245 39.8616C19.46 39.9746 19.5218 40.0992 19.4088 40.4348C19.1366 41.2018 18.8781 41.9827 18.6206 42.7608L18.6206 42.7608C18.4921 43.1488 18.3639 43.5361 18.2344 43.9207C17.7634 45.3188 16.7416 45.8256 15.3621 45.3608L11.0001 43.8913L6.52618 42.384C5.20265 41.9381 4.68348 40.8914 5.1231 39.5865C5.25266 39.2019 5.38497 38.816 5.51753 38.4294L5.51754 38.4294L5.51757 38.4293C5.78338 37.654 6.05014 36.8759 6.29751 36.1006C6.44196 35.6718 6.59757 35.6412 6.98275 35.7918C8.20946 36.2189 9.45005 36.6322 10.6879 37.0446L10.6882 37.0447L10.6903 37.0454C11.3075 37.2511 11.9241 37.4565 12.5379 37.6633C12.9107 37.7889 13.3021 37.9208 13.6813 38.0277C14.0231 38.1221 14.3221 37.9738 14.5097 37.6634C14.6911 37.3716 14.717 37.0482 14.55 36.7429C14.3891 36.4811 14.1407 36.3559 13.8611 36.2617L7.42985 34.095C7.39346 34.0827 7.35278 34.0738 7.31118 34.0646L7.31106 34.0646C7.13959 34.0269 6.9523 33.9856 6.98326 33.6955C7.30694 31.6873 6.50976 30.0487 5.44512 28.4031C1.76243 22.6374 1.56377 16.6962 4.86738 10.7102C6.48799 7.74827 8.97057 5.6164 11.9861 4.12071C12.5779 3.84269 12.7661 3.34566 12.5126 2.86587C12.2591 2.38608 11.8178 2.27892 11.2323 2.5383C4.67241 5.55907 0.394465 12.7735 0.844031 20.0032C1.06851 23.7113 2.26454 27.0617 4.44446 30.0794C5.40434 31.4199 5.54888 32.9009 5.02762 34.4481L3.43243 39.183C2.88605 40.8048 3.37241 42.3801 4.72515 43.417C4.95472 43.5982 5.04125 43.7726 5.0901 44.0589C5.4681 46.4488 6.78764 48.1388 9.06167 48.9672C11.4289 49.827 13.5704 49.3237 15.4172 47.6004C15.6605 47.371 15.8785 47.2784 16.1958 47.2608C17.8753 47.2661 19.2034 46.2813 19.7373 44.6968C19.8985 44.2184 20.0638 43.7413 20.2291 43.2643L20.2292 43.2641C20.5598 42.31 20.8905 41.3559 21.188 40.3907C21.7666 38.4269 23.0331 37.2553 24.9883 36.6271C33.513 33.8739 38.7902 25.4185 37.5805 16.6251C36.5592 9.24434 31.0993 2.90061 23.4475 1.15299L23.485 1.10335ZM7.01114 44.3948L13.7593 46.6682C11.8317 48.3851 7.94619 47.6573 7.01114 44.3948ZM30.6484 17.424C31.1097 17.102 31.2292 16.6856 30.982 16.1872L29.474 13.1467C29.2391 12.6732 28.8353 12.5164 28.3247 12.6765C28.2059 12.7157 28.0865 12.7504 27.9685 12.7848L27.9685 12.7848C27.7153 12.8586 27.4684 12.9305 27.2474 13.0401C26.5309 13.3799 25.9962 13.3035 25.3885 12.7044C24.9545 12.2676 24.713 11.9371 24.9451 11.3096C25.0535 10.988 25.0989 10.6453 25.1443 10.3025C25.1595 10.1883 25.1746 10.074 25.1921 9.96055C25.2871 9.43212 25.1017 9.0583 24.5797 8.88245L21.3175 7.7834C20.7955 7.60755 20.4217 7.79297 20.1776 8.27116C19.9146 8.80528 19.6516 9.3394 19.3763 9.84859C19.357 9.88215 19.34 9.91804 19.3228 9.95423C19.2511 10.1055 19.1769 10.2621 18.9208 10.2763C18.1364 10.3547 17.7443 10.3939 17.4368 10.2511C17.1296 10.1085 16.9067 9.78432 16.4612 9.13633C16.3993 9.04282 16.3327 8.94774 16.2661 8.85266C16.1996 8.75759 16.133 8.66252 16.0711 8.56901C15.9473 8.382 15.8048 8.18871 15.5499 8.14435C15.2829 8.01286 15.0276 8.09291 14.7784 8.21652C14.4554 8.37673 14.1303 8.53625 13.8043 8.69622L13.8041 8.69632L13.804 8.69637C13.1492 9.0177 12.4907 9.34086 11.8376 9.67512C11.2395 9.97178 11.1078 10.301 11.3297 10.9362C11.419 11.2258 11.5176 11.5185 11.6162 11.8112C11.7148 12.1038 11.8134 12.3965 11.9026 12.686C11.9102 12.7056 11.9186 12.7251 11.9271 12.7446C11.9802 12.8678 12.0342 12.9928 11.8887 13.1587C11.5392 13.5184 11.2083 13.8844 10.9084 14.2815C10.7917 14.4185 10.6845 14.394 10.571 14.3679C10.551 14.3633 10.5307 14.3587 10.5101 14.3549C9.82626 14.2283 9.16105 14.1079 8.47093 14C7.97977 13.9175 7.64931 14.1591 7.47995 14.6002L6.3809 17.8624C6.23017 18.3098 6.36574 18.7084 6.78801 18.9336C7.19164 19.1527 7.59527 19.3717 8.01146 19.5534C8.58914 19.8103 9.07969 20.0793 8.92169 20.8564C8.87753 21.0491 8.92657 21.2732 8.9819 21.4786C9.04938 21.7712 8.93694 21.9201 8.70008 22.0687C8.33207 22.2949 7.97627 22.5457 7.62846 22.7909L7.62842 22.7909C7.48144 22.8945 7.33588 22.9971 7.19143 23.0964C6.73008 23.4184 6.59192 23.8285 6.85778 24.3332L8.36582 27.3737C8.60068 27.8472 9.00451 28.004 9.5151 27.8439C9.56806 27.8288 9.62141 27.8139 9.67496 27.7989C9.99284 27.7098 10.3178 27.6188 10.611 27.4866C11.3275 27.1468 11.8622 27.2231 12.4513 27.816C12.8853 28.2528 13.1455 28.5895 12.9133 29.2171C12.8214 29.4899 12.7823 29.7805 12.7432 30.0712C12.7209 30.2373 12.6986 30.4034 12.6664 30.5661C12.5714 31.0946 12.7568 31.4684 13.2787 31.6442L16.541 32.7433C17.0629 32.9191 17.4367 32.7337 17.6809 32.2555C17.7179 32.184 17.7573 32.1113 17.7971 32.0379L17.7972 32.0377C17.8852 31.8755 17.9749 31.7101 18.0439 31.5475C18.3577 30.6777 18.8203 29.9825 19.9268 30.21C20.02 30.2414 20.1134 30.2106 20.2068 30.1798C20.487 30.0873 20.6297 30.2184 20.7596 30.449C21.0876 30.9539 21.4344 31.4651 21.806 31.9639C22.1713 32.4814 22.5381 32.5635 23.0863 32.2915C24.0769 31.8157 25.0489 31.3336 26.0271 30.8329C26.6252 30.5363 26.7506 30.2256 26.5413 29.5531C26.3628 28.9742 26.1656 28.3889 25.9685 27.8036L25.9684 27.8034C25.8944 27.5916 25.8887 27.4237 26.0697 27.2563C26.3568 26.9586 26.6315 26.636 26.9062 26.3135C27.0436 26.1522 27.1682 26.0904 27.3982 26.1471C27.8158 26.2442 28.2395 26.323 28.6565 26.4006L28.6565 26.4006C28.8354 26.4339 29.0131 26.467 29.1885 26.5012C29.8351 26.6152 30.2152 26.4112 30.4036 25.8519L31.465 22.7015C31.6345 22.1982 31.499 21.7997 31.0084 21.5306L31.0083 21.5306C30.6047 21.3116 30.2011 21.0926 29.785 20.9109C29.2446 20.6665 28.7913 20.4101 28.9305 19.6889C28.9778 19.4907 28.9267 19.2594 28.8797 19.0466L28.8705 19.0045C28.8091 18.7555 28.8842 18.594 29.1211 18.4454C29.6508 18.1051 30.1682 17.7398 30.6857 17.3745L30.6857 17.3744L30.6858 17.3743L30.6484 17.424ZM27.9092 21.981C28.1866 22.1022 28.4585 22.2399 28.7304 22.3776C28.8663 22.4465 29.0023 22.5153 29.1389 22.5821C29.4246 22.7199 29.6169 22.8884 29.4167 23.2362C29.3792 23.3065 29.3582 23.3825 29.3372 23.4585C29.3267 23.4964 29.3162 23.5344 29.3037 23.5717C29.0357 24.3671 28.4894 24.6743 27.6647 24.4933C27.5854 24.4795 27.5036 24.4669 27.4211 24.4541L27.421 24.4541L27.4209 24.4541C27.2385 24.426 27.0526 24.3973 26.8814 24.3539C26.4215 24.2405 26.0975 24.4012 25.8475 24.7736C25.3912 25.4502 24.8792 26.0457 24.2679 26.5662C23.9436 26.8514 23.8678 27.1995 24.0034 27.598C24.0459 27.727 24.0881 27.857 24.1305 27.9874C24.272 28.4234 24.415 28.8637 24.5765 29.2856C24.6628 29.5222 24.6188 29.6527 24.3885 29.7204C24.3581 29.7247 24.3337 29.741 24.3133 29.7547C24.3044 29.7607 24.2963 29.7661 24.2888 29.7699C24.1432 29.8372 23.9939 29.9276 23.8449 30.0177L23.8449 30.0177C23.5158 30.2168 23.1884 30.4149 22.9059 30.3626C22.6115 30.3061 22.4323 29.9658 22.2527 29.6249L22.2527 29.6249C22.1707 29.469 22.0885 29.3131 21.9953 29.184C21.927 29.1007 21.867 29.0081 21.8062 28.914L21.8062 28.914C21.6575 28.684 21.5035 28.4458 21.2081 28.3168C20.6385 28.4363 20.0615 28.4547 19.4845 28.473C18.9075 28.4914 18.3305 28.5098 17.7609 28.6292C17.3787 28.7025 17.2361 29.1012 17.1018 29.4767L17.1018 29.4767C17.0568 29.6026 17.0127 29.7259 16.9608 29.8334L16.9312 29.8913C16.4163 30.8962 16.4076 30.9132 15.2915 30.5372C14.5086 30.2734 14.4154 30.242 14.6729 29.4778C15.1062 28.1915 14.8853 27.2453 13.6371 26.5757C13.374 26.4408 13.1594 26.196 12.9469 25.9537C12.8735 25.87 12.8003 25.7866 12.7255 25.7081C12.3908 25.3463 12.0179 25.2207 11.5446 25.3933C11.2831 25.492 11.0215 25.5751 10.76 25.6583L10.76 25.6583C10.4985 25.7414 10.2369 25.8246 9.97536 25.9232C9.72006 26.0033 9.58957 25.9593 9.4846 25.7164C9.413 25.5507 9.30884 25.3812 9.20519 25.2126L9.20518 25.2126C9.00494 24.8869 8.8066 24.5642 8.84851 24.2774C8.90375 23.9187 9.33943 23.701 9.74735 23.4973L9.74739 23.4973C9.85551 23.4432 9.96168 23.3902 10.0583 23.3358C10.7812 22.9151 11.0379 22.3996 10.798 21.5715C10.6504 21.0237 10.6399 20.4389 10.7102 19.8606C10.7618 19.2761 10.6076 18.8713 10.0299 18.6144C9.75782 18.4978 9.49252 18.3611 9.22722 18.2244C9.05036 18.1332 8.87349 18.0421 8.69461 17.9569C8.42755 17.8254 8.30982 17.682 8.42287 17.3464L8.45918 17.2385C8.94327 15.7988 8.94444 15.7954 10.4857 16.1525C11.2378 16.3229 11.7978 16.2625 12.2233 15.4925C12.5361 14.9337 13.0228 14.4749 13.5155 14.0597C13.9147 13.7375 13.9844 13.3459 13.8303 12.8788C13.7391 12.637 13.6625 12.3912 13.5864 12.1469L13.5863 12.1469C13.4978 11.8628 13.4099 11.5808 13.3004 11.3096C13.2017 11.048 13.2581 10.9424 13.501 10.8375C13.9121 10.6646 14.3108 10.4668 14.6786 10.2379C14.959 10.0832 15.0706 10.1831 15.2192 10.42C15.4365 10.7666 15.6706 11.0966 15.9067 11.4295L15.9067 11.4295L15.9069 11.4298C15.9934 11.5518 16.0802 11.6741 16.1665 11.7977C16.4141 12.1718 16.762 12.3097 17.2039 12.2303C17.982 12.0773 18.7535 12.0051 19.5371 12.0823C20.0408 12.1274 20.3712 11.8859 20.5779 11.4573C20.6405 11.3331 20.7043 11.2093 20.768 11.0855C20.9593 10.7141 21.1506 10.3426 21.3105 9.96054C21.4045 9.74313 21.5105 9.67504 21.7279 9.76905L22.4922 10.0265C23.0887 10.2275 23.3238 10.6388 23.1973 11.2605L23.122 11.4841C22.7954 12.4535 22.9172 13.2625 23.9482 13.7759C24.3692 13.9881 24.6825 14.3429 24.9985 14.7006C25.0554 14.765 25.1123 14.8295 25.17 14.8933C25.4675 15.2426 25.8466 15.3496 26.3136 15.1956C26.5048 15.1295 26.7002 15.0676 26.8961 15.0056L26.8962 15.0056L26.8962 15.0056C27.2299 14.9 27.565 14.794 27.8829 14.6656C28.1445 14.567 28.2936 14.6172 28.4109 14.8851C28.4811 15.0476 28.582 15.2158 28.6822 15.383C28.8817 15.7157 29.0789 16.0447 29.0284 16.3177C28.9724 16.6472 28.4507 16.917 28.0162 17.1416C27.9588 17.1713 27.9029 17.2002 27.8498 17.2284C27.0896 17.6365 26.8452 18.1769 27.0789 19.0236C27.2327 19.5528 27.2496 20.119 27.1669 20.6723C27.0902 21.3314 27.3252 21.7427 27.9092 21.981ZM13.5946 18.5076C14.5619 15.5746 17.7519 13.9924 20.6972 14.9847C23.6239 15.9707 25.2247 19.167 24.2201 22.0874C23.2217 24.9891 20.063 26.5403 17.1363 25.5543C14.2283 24.5746 12.6149 21.4156 13.5946 18.5076ZM15.2848 19.0355C14.6129 21.0302 15.6571 23.2293 17.6517 23.9013L17.658 23.8827C19.6836 24.5859 21.8704 23.5167 22.5549 21.4849C23.2269 19.4902 22.1764 17.3097 20.1881 16.6191C18.1811 15.9222 15.9694 17.0036 15.2848 19.0355Z" fill="#1F2430"></path>
</svg>
